<svg id="Layer_1" xmlns="http://www.w3.org/2000/svg" x="0" y="0" viewBox="0 0 206.8 67.5" style="enable-background:new 0 0 206.8 67.5" xml:space="preserve"><style>.st0{fill:#2b2b2b}.st1{enable-background:new}.st2{font-family:&apos;Georgia&apos;}.st4{font-size:4px}.st5{font-size:4.0002px}</style><path class="st0" d="M0 33.8C-.1 15.1 15 0 33.7-.1s33.8 15 33.9 33.7-15 33.8-33.7 33.9h-.1C15.2 67.5.1 52.4 0 33.8m1 0c0 18.1 14.7 32.8 32.8 32.8s32.8-14.7 32.8-32.8S52 1.1 33.9 1h-.1C15.7 1 1 15.7 1 33.8z"/><path class="st0" d="M24 23.4c1-.4 2-1 2.8-1.8.3 1.4.9 2.7 1.8 3.9-.8.3-1.6.7-2.2 1.3-.4-1.3-1.3-2.5-2.4-3.4m11.4-6c-1.2-.1-2.4.1-3.6.5-.2-1.9-.9-3.7-2-5.2.1-.1 2.9-1.2 4.7-.9s1 4.1.9 5.6zM37.1 51l1.1.7H29c.9-.5 1.7-.9 1.8-1.3.4-1.7.4-3.6 0-5.3-.8-1.6-2.2-2.8-3.9-3.4-.6.1-1.2.4-1.8.7l1 .7c-.9.6-1.7 1.4-2.2 2.4-.5-.6-1.1-1.1-1.7-1.6.5-1 1.3-1.8 2.3-2.4l.5.5c.4-.3.8-.6 1.3-.7-1.7-.6-3.5-1.1-5.3-1.3v1.8c-2-.2-3.9 0-5.8.7 0-.2-.6-3 .1-4.7.7-1.7 4.5.1 6.1.4-.1.4-.2.9-.3 1.3 1.3-.2 2.5-.3 3.8-.2-.6-.9-1.5-1.6-2.5-2-1.1-.5-2-1.1-2.9-1.9l-1.5.8c-.3-1.9-1.3-3.8-2.6-5.2 1.5-.3 2.9-.9 4.2-1.6.2 1.4.5 4.3 1.5 5.6-.6 0-1.1.2-1.6.5 1 .7 2.2 1.2 3.4 1.5-.1-.5-.1-1 0-1.5h-.7c-.1-.9-.1-1.7.1-2.6.7-.1 1.4 0 2 .2-.4.8-.6 1.6-.6 2.5h-.8c0 .6.1 1.1.4 1.6 1.3.4 2.5 1.3 3.2 2.5l2.7.7c0-.5-.1-1-.3-1.4l-.7.2c-.2-.9-.6-1.7-1.2-2.3.6-.3 1.3-.6 2-.7.4.8.6 1.6.7 2.5h-.8c.3.5.5 1 .6 1.6l1.6.7c.2-2.4-.6-4.7-2.1-6.5l-1.6 1.3c-.5-2.1-3.6-4.8-3.6-4.8 1.2-.6 2.3-1.4 3.3-2.4 1.9 1 3.3 3.9 3.6 4.7l-1.5.8 1.8 1.5.7 1c.4-.3.7-.7 1-1.2l-1-.3c.7-1 1.1-2.1 1.3-3.3.7.5 1.5.8 2.3.9-.1 1.2-.5 2.4-1.2 3.4l-1-.5c-.2.6-.5 1.2-1 1.7.6 1.3 1 2.8 1.6 4.2 3.6-3 2.6-8.7 1.9-11.3l-1.7 1.3c-1.2-1.9-2.8-3.4-4.7-4.5.1-.1 2.2-2.7 4.2-3.2s3 3.9 3.9 5.6l-1.3.7c.9 1.4 1.6 2.9 1.9 4.5l1.6-1.3-.7-.3c.5-1 1.3-1.8 2.3-2.4.5.6 1.1 1.1 1.7 1.5-.9.6-1.7 1.4-2.2 2.4l-.9-.9c-.7.9-1.3 2-1.7 3.1.1 1.2 0 2.5-.3 3.7 1-.6 2.1-.9 3.3-1 .3-1.2 1-2.1 2.1-2.7L42 35.4c1.2-1.2 3.5-3.4 4.8-3.7 1.2 1.1 2.1 2.4 2.7 3.9-1.9.4-3.7 1.3-5.2 2.6l-.9-1.3c-.6.7-1 1.5-1.1 2.4 1.5-.1 3.1 0 4.6.2.1-.6.2-1.1.1-1.7.8-.1 4 0 5.8 1.3-.4 1.3-.7 2.7-.7 4.1 0 0-3.7-1.6-5.8-1.2.2-.6.4-1.3.5-1.9-2.1-.2-4.2.1-6.2.9l2 .4c.1-.2.2-.5.2-.7 1.1.2 2.1.8 2.9 1.6-.6.5-1 1.2-1.2 1.9-.8-.7-1.8-1.2-2.9-1.5l.7-1.1c-.9-.1-1.8-.2-2.7-.1L38 42.6c-.6.6-1.1 1.3-1.4 2.1.3.4.4.9.4 1.4.1.8-.3 1.5-1 1.9 0 1.1.4 2.2 1.1 3zm-1-5.1c.1-.4-.1-.8-.5-1-.4.1-.6.5-.6.9-.1.4.1.8.5 1 .4-.1.7-.5.6-.9zm-.7-1.8c-.7.2-1 1-.8 2.1-.1-.7.2-1.4.7-1.9.3-.2.1-.3.1-.3v.1zM29.3 23c-.9-1.8-2.2-3.4-3.8-4.6.1-.1 2.3-2.1 4.1-2.5s2.4 3.9 2.9 5.4l-1.7.7c.2.6.2 1.2 0 1.8-.1-.5-.2-1.1-.4-1.6l-1.1.8zM15.8 33.1c-.4.5-.5 2.7-.4 4.2-1.9-.6-3.9-.8-5.9-.7.4-1.4.6-2.8.4-4.2.9.7 4.5.8 5.9.7zm9.1-4.8c-1.4.1-2.7.6-3.9 1.3-.1-1.9-1.9-4.6-2.8-6 1.8-.1 5-1.7 5-1.7-.4 1.8.6 4.6 1.7 6.4-.1 0 0 0 0 0zm15-8.8c-1-.2-2-.2-3 0-.2-1.3-.4-4 .1-5.1 1.3-.2 2.6-.1 3.9.3-.7 1.5-1.1 3.1-1 4.8zm-16.7 1.6s-1.7-2.5-3.1-3c.8-.6 1.5-1.4 2-2.2 1.3.7 2.3 1.7 3 3-.8.6-1.4 1.4-1.9 2.2zM42.7 28c1.9-1 3.8-4.6 3.8-4.6.9 1.1 1.9 2 3.1 2.8-.6 2.1-3 4.2-3.7 4.6-.3-.4-.6-.8-1-1.1-.8.8-1.4 1.9-1.7 3 .2-1.2.7-2.3 1.3-3.3L42.7 28zm9 10.3c.2-.7-.7-3-1.5-4.6 2.3-.2 4.5-.9 6.5-2.1.2 1.6.7 3.2 1.5 4.6-1.2-.2-5.1 1.3-6.5 2.1zm-3.1-8.5c1.6-1 3.8-3.1 4.3-4.8 1 1.4 2.2 2.6 3.6 3.6-1.4.8-4.2 2.5-5.1 4-.7-1.2-1.6-2.1-2.8-2.8zm-8-8c.6-1.2 1.9-4.6 1.8-5.6 1.2.7 2.6 1.1 4 1.3-.9 1.7-1.5 3.6-1.7 5.5-1.3-.7-3.4-1.5-4-1.3l-.1.1zm-1.3 6c-.3 1.3-.9 2.6-1.7 3.7.6-1.2.9-2.5 1-3.9l-1.6-.4c1-1.3 1.2-4.2 1.3-5.6 1.4.7 2.8 1.2 4.3 1.4-1.2 1-2 3.6-2.2 5.4l-1.1-.6zm-5.9-7.9c1 0 1.9-.2 2.8-.6 0 1.4.3 2.7.8 4-1 0-1.9.2-2.8.6 0-1.4-.3-2.7-.8-4zm19.1.9c-1 .8-1.9 1.8-2.4 3-.7-.5-1.4-.8-2.2-1 .4-1 1.1-3 1.8-3.6 1 .3 2 .8 2.8 1.5v.1zm-36.7 7.7c-.6-1.6-3.1-3.5-3.1-3.5.9-.6 1.7-1.2 2.4-2 1.4.8 2.5 1.9 3.2 3.3-.9.6-1.8 1.3-2.5 2.2z"/><path class="st0" d="M16.5 51.3H51v.5H16.5v-.5zm-2 3.4h-.2c-5.1-4.7-8.2-11.1-8.9-18 .1-.2.2-.2.4-.2l.1.1c.7 6.7 3.8 13 8.8 17.6.1.1.1.3 0 .4h-.2v.1zm38.5 0h-.2c-.1-.1-.1-.3 0-.4 5-4.6 8.1-10.9 8.8-17.7-.1-.2 0-.3.2-.4.2-.1.3 0 .4.2 0 .1 0 .2-.1.3-.7 6.9-3.9 13.3-8.9 18H53z"/><g class="st1"><path class="st0" d="M81.6 30.8h-3.7v-.4h.4c.2 0 .3 0 .4-.1.1 0 .2-.1.3-.2.1-.1.1-.2.1-.4v-5.9c0-.1 0-.2-.1-.3 0-.1-.1-.2-.3-.2-.1 0-.3-.1-.4-.1s-.3-.1-.4-.1v-.4h3.7v.4h-.4c-.2 0-.3.1-.4.1s-.2.1-.3.2c0 .1-.1.2-.1.3v5.9c0 .1 0 .2.1.3.1.1.1.2.3.2.1 0 .2.1.4.1s.3.1.5.1l-.1.5zm9.3-7.7c-.1 0-.3 0-.5.1s-.4.1-.5.2-.2.3-.3.5c0 .3-.1.6-.1 1v5.9H89l-4.9-6.6v4.2c0 .5 0 .8.1 1.1.1.3.1.4.3.5.1.1.3.2.5.2.3.1.5.1.5.1v.5h-3.3v-.4c.1 0 .3 0 .5-.1s.4-.1.5-.2.2-.3.3-.5c0-.2.1-.6.1-1.1v-4c0-.2 0-.3-.1-.5s-.1-.3-.2-.4-.3-.2-.6-.3c-.2-.1-.4-.1-.6-.1v-.4h2.3L89 29v-3.9c0-.5 0-.8-.1-1.1-.1-.3-.1-.4-.3-.5-.1-.1-.3-.1-.5-.2s-.4-.1-.6-.1v-.4h3.3l.1.3zm7.3 1.8h-.4c0-.1-.1-.3-.2-.5s-.2-.4-.3-.5c-.1-.2-.2-.3-.4-.5-.1-.1-.3-.2-.4-.2h-1.2v6.5c0 .1 0 .2.1.3.1.1.1.2.3.2.1 0 .2.1.4.1s.4.1.5.1v.4h-3.8v-.4h.5c.2 0 .4-.1.5-.1s.2-.1.3-.2c.1-.1.1-.2.1-.4v-6.5H93c-.1 0-.3.1-.4.2s-.3.3-.4.5-.2.4-.3.5c-.1.2-.1.4-.2.5h-.6v-2.2h7.1v2.2zm7.4 3.5-.2 2.4h-6.7v-.4h.5c.2 0 .3-.1.4-.1.1-.1.2-.1.3-.2 0-.1.1-.2.1-.3v-5.9c0-.1 0-.2-.1-.3 0-.1-.1-.2-.3-.2-.1 0-.2-.1-.4-.1s-.3-.1-.4-.1v-.4h6.3v2h-.4c-.1-.3-.2-.6-.5-.9s-.5-.5-.7-.5h-2.3v3.2h.9c.3 0 .5 0 .6-.1s.3-.1.4-.3c.1-.1.2-.3.2-.4.1-.2.1-.4.1-.5h.4v3.2h-.4c0-.2-.1-.4-.1-.6-.1-.2-.1-.4-.2-.4-.1-.1-.3-.2-.4-.3-.1 0-.3-.1-.6-.1h-.9v2.4c0 .2 0 .4.1.6s.1.2.2.3c.1.1.2.1.4.1h1.7c.1 0 .3 0 .4-.1.2 0 .3-.1.3-.2.2-.2.4-.5.6-.8l.4-.8h.3v-.2zm8.8 2.4h-2.2c-.5-.8-.9-1.4-1.3-2s-.8-1.1-1.3-1.7h-.8v2.6c0 .1 0 .3.1.4 0 .1.1.2.3.2.1 0 .2.1.4.1h.4v.4h-3.4v-.4h.4c.2 0 .3 0 .4-.1.1 0 .2-.1.2-.2.1-.1.1-.2.1-.4v-5.9c0-.1 0-.3-.1-.4 0-.1-.1-.2-.3-.2-.1 0-.2-.1-.4-.1s-.3 0-.4-.1v-.4h3.7c.3 0 .7 0 1 .1s.6.2.8.3l.6.6c.1.2.2.5.2.9 0 .3 0 .6-.1.8-.1.2-.2.4-.4.6-.2.2-.4.3-.6.4s-.5.2-.8.3c.4.5.7 1 1 1.3.3.4.6.8 1 1.3.2.2.3.4.5.5s.3.2.4.3c.1.1.2.1.4.1h.4v.7h-.2zm-3-6c0-.5-.1-.9-.4-1.2-.3-.3-.7-.4-1.2-.4h-1v3.5h.7c.5 0 1-.2 1.3-.5.4-.4.6-.9.6-1.4z"/><path class="st0" d="M122.2 30.8h-3.4v-.4c.3 0 .5-.1.7-.1.2-.1.3-.1.3-.2v-.2l-.7-1.8h-2.8c-.1.3-.2.5-.3.7-.1.2-.1.4-.2.5 0 .2-.1.3-.1.4v.3c0 .2.1.3.4.4.2.1.5.1.8.1v.3h-3.1v-.4c.1 0 .2 0 .4-.1s.3-.1.4-.1c.2-.1.3-.2.4-.3s.2-.3.2-.5c.4-1 .9-2.2 1.3-3.4.5-1.3.9-2.4 1.3-3.4h.5l2.7 7c.1.1.1.3.2.4l.3.3c.1.1.2.1.3.1.1 0 .3.1.4.1v.3zm-3.2-3.3-1.2-3.1-1.2 3.1h2.4zm7.1 3.5c-.5 0-.9-.1-1.4-.3s-.8-.5-1.2-.8c-.3-.4-.6-.8-.8-1.3s-.3-1.1-.3-1.7.1-1.2.3-1.8c.2-.5.5-1 .8-1.4s.8-.7 1.2-.9c.5-.2 1-.3 1.5-.3.4 0 .8 0 1.1.1.3.1.6.2.9.4l.2-.4h.5l.1 2.9h-.5l-.3-.9c-.1-.3-.3-.6-.4-.8-.2-.3-.4-.5-.6-.6-.3-.1-.5-.2-.9-.2s-.7.1-1 .2c-.3.2-.6.4-.8.7-.2.3-.4.7-.5 1.2s-.2 1-.2 1.6c0 .5.1 1 .2 1.4s.3.8.6 1.1c.2.3.5.6.9.8.3.2.7.3 1.1.3.3 0 .6 0 .9-.1s.5-.2.7-.4c.2-.2.4-.4.5-.6s.3-.4.4-.7l.4.2c-.3.8-.8 1.4-1.3 1.7-.7.4-1.4.6-2.1.6zm10.5-6.1h-.4c0-.1-.1-.3-.2-.5s-.2-.4-.3-.5c-.1-.2-.2-.3-.4-.5s-.3-.2-.4-.2h-1.2v6.5c0 .1 0 .2.1.3.1.1.1.2.3.2.1 0 .2.1.4.1s.4.1.5.1v.4h-3.8v-.4h.5c.2 0 .4-.1.5-.1s.2-.1.3-.2.1-.2.1-.4v-6.5h-1.2c-.1 0-.3.1-.4.2-.1.1-.3.3-.4.5-.1.2-.2.4-.3.5-.1.2-.1.4-.2.5h-.4v-2.2h7.1v2.2h-.2zm4.2 5.9h-3.7v-.4h.4c.2 0 .3 0 .4-.1.1 0 .2-.1.3-.2s.1-.2.1-.4v-5.9c0-.1 0-.2-.1-.3s-.1-.2-.3-.2c-.1 0-.3-.1-.4-.1s-.3-.1-.4-.1v-.4h3.7v.4h-.4c-.1 0-.3.1-.4.1-.1 0-.2.1-.3.2s-.1.2-.1.3v5.9c0 .1 0 .2.1.3.1.1.1.2.3.2.1 0 .2.1.4.1s.3.1.5.1v.5h-.1zm7.6-7.1c.4.4.6.8.8 1.4.2.5.3 1.1.3 1.8 0 .6-.1 1.2-.3 1.8-.2.5-.5 1-.9 1.3-.4.4-.8.6-1.2.8-.5.2-1 .3-1.5.3-.6 0-1.1-.1-1.6-.3-.5-.2-.9-.5-1.2-.9s-.6-.8-.8-1.3-.3-1.1-.3-1.7c0-.7.1-1.2.3-1.8.2-.5.5-1 .9-1.3.4-.4.8-.7 1.2-.9.5-.2 1-.3 1.5-.3s1 .1 1.5.3c.5.1.9.4 1.3.8zm-.9 5.7c.2-.3.4-.7.5-1.2.1-.4.1-.9.1-1.5s-.1-1.1-.2-1.5c-.1-.5-.3-.9-.5-1.2-.2-.3-.5-.6-.8-.8-.3-.2-.7-.3-1.1-.3-.5 0-.8.1-1.2.3-.3.2-.6.5-.8.8s-.3.7-.4 1.2c-.1.5-.1.9-.1 1.4s.1 1 .1 1.5c.1.4.3.8.5 1.2.2.3.5.6.8.8s.7.3 1.1.3c.4 0 .8-.1 1.1-.3.5-.1.7-.4.9-.7zm11.4-6.3c-.1 0-.3 0-.5.1s-.4.1-.5.2-.2.3-.3.5-.1.6-.1 1v5.9h-.5l-4.9-6.6v4.2c0 .5 0 .8.1 1.1.1.3.2.4.3.5s.3.2.5.2c.3.1.5.1.5.1v.5h-3.3v-.4c.1 0 .3 0 .5-.1s.4-.1.5-.2.2-.3.3-.5.1-.6.1-1.1v-4c0-.2 0-.3-.1-.5s-.1-.3-.2-.4c-.1-.1-.3-.2-.6-.3-.2-.1-.4-.1-.6-.1v-.4h2.3L157 29v-3.9c0-.5 0-.8-.1-1.1-.1-.3-.1-.4-.3-.5-.1-.1-.3-.1-.5-.2s-.4-.1-.6-.1v-.4h3.3v.3h.1zm11.2 3.7c0 .7-.1 1.3-.4 1.8-.3.5-.6.9-1 1.2-.4.3-.9.6-1.4.7s-1.1.2-1.6.2h-3.4v-.4h.4c.2 0 .3 0 .4-.1.1 0 .2-.1.2-.2.1-.1.1-.2.1-.4v-5.8c0-.1 0-.2-.1-.3 0-.1-.1-.2-.3-.2-.1-.1-.2-.1-.4-.1-.1 0-.3 0-.4-.1v-.4h3.5c.5 0 1 .1 1.4.2s.9.4 1.2.6c.5.3.9.8 1.1 1.3s.7 1.3.7 2zm-1.4 0c0-.5-.1-1-.2-1.5-.1-.4-.4-.8-.6-1.1-.3-.3-.6-.6-1-.7s-.8-.3-1.3-.3h-.9v6.2c0 .3.1.6.3.7s.5.2.9.2c.5 0 .9-.1 1.3-.3.4-.2.7-.4.9-.7.2-.3.4-.7.5-1.1s.1-.9.1-1.4zm9.2 1.6-.2 2.4H171v-.4h.5c.2 0 .3-.1.4-.1.1-.1.2-.1.3-.2 0-.1.1-.2.1-.3v-5.9c0-.1 0-.2-.1-.3 0-.1-.1-.2-.3-.2-.1 0-.2-.1-.4-.1s-.3-.1-.4-.1v-.4h6.3v2h-.4c-.1-.3-.2-.6-.5-.9s-.5-.5-.7-.5h-2.3v3.2h.9c.3 0 .5 0 .6-.1s.3-.1.4-.3c.1-.1.2-.3.2-.4.1-.2.1-.4.1-.5h.4v3.2h-.4c0-.2-.1-.4-.1-.6-.1-.2-.1-.4-.2-.4-.1-.1-.3-.2-.4-.3-.1 0-.3-.1-.6-.1h-.9v2.4c0 .2 0 .4.1.6s.1.2.2.3c.1.1.2.1.4.1h1.7c.1 0 .3 0 .4-.1s.3-.1.3-.2c.2-.2.4-.5.6-.8l.4-.8h.3v-.2zm5.9-1.3c.2.2.3.4.4.6s.1.5.1.8c0 .7-.3 1.3-.8 1.8s-1.2.7-2 .7c-.4 0-.7-.1-1.1-.2-.4-.1-.7-.2-.9-.4l-.2.4h-.5l-.1-2.8h.5c.1.3.2.7.3.9.1.3.3.5.5.8.2.2.4.4.7.5s.6.2.9.2c.3 0 .5 0 .7-.1s.4-.2.5-.3c.1-.1.2-.3.3-.4.1-.2.1-.4.1-.6 0-.3-.1-.6-.3-.9s-.5-.5-.8-.6c-.2-.1-.5-.2-.9-.3-.3-.1-.6-.2-.8-.3-.5-.2-.8-.5-1.1-.8s-.4-.8-.4-1.3c0-.3.1-.6.2-.9s.3-.5.5-.7.5-.4.8-.5.6-.2.9-.2c.4 0 .7.1 1 .2s.6.2.8.4l.2-.4h.5v2.7h-.5l-.3-.9c-.1-.3-.2-.5-.4-.8-.2-.2-.4-.4-.6-.5-.2-.1-.5-.2-.9-.2s-.7.1-.9.3c-.3.2-.4.5-.4.9s.1.6.2.9c.2.2.4.4.7.6.3.1.6.2.8.3.3.1.5.2.8.3.2.1.4.2.7.3.5.2.6.3.8.5zm5.1 3.7h-3.6v-.4h.4c.2 0 .3 0 .4-.1.1 0 .2-.1.3-.2s.1-.2.1-.4v-5.9c0-.1 0-.2-.1-.3 0-.1-.1-.2-.3-.2-.1 0-.3-.1-.4-.1-.2 0-.3-.1-.4-.1v-.4h3.7v.4h-.4c-.2 0-.3.1-.4.1-.1 0-.2.1-.3.2 0 .1-.1.2-.1.3v5.9c0 .1 0 .2.1.3.1.1.2.2.3.2s.2.1.4.1.3.1.5.1v.5h-.2zm8.8-3.2c-.1 0-.2 0-.4.1-.2 0-.3.1-.4.1-.1.1-.2.1-.2.2s-.1.2-.1.4v1.9c-.5.2-1 .4-1.5.5s-1 .2-1.5.2-1-.1-1.5-.3c-.5-.2-.9-.5-1.3-.8-.4-.4-.6-.8-.9-1.3-.2-.5-.3-1.1-.3-1.7s.1-1.2.3-1.7.5-1 .9-1.4.8-.7 1.3-.9c.5-.2 1-.3 1.6-.3.5 0 .9.1 1.2.2s.6.2.9.4l.2-.4h.5l.1 2.8h-.5l-.3-.9c-.1-.3-.3-.6-.5-.8-.2-.2-.4-.4-.7-.6-.3-.1-.6-.2-1-.2s-.8.1-1.1.2c-.3.2-.6.4-.8.7-.2.3-.4.7-.5 1.2s-.2 1-.2 1.6c0 .5.1 1 .2 1.5s.3.9.5 1.2c.2.3.5.6.9.8.4.2.8.3 1.2.3.3 0 .6-.1.9-.2.3-.1.5-.2.6-.3v-1.5c0-.2 0-.3-.1-.4 0-.1-.1-.2-.3-.3-.1-.1-.3-.1-.5-.1s-.4 0-.5-.1v-.4h3.6v.3h.2zm9-4.5c-.1 0-.3 0-.5.1s-.4.1-.5.2-.2.3-.3.5c0 .3-.1.6-.1 1v5.9h-.5l-4.9-6.6v4.2c0 .5 0 .8.1 1.1.1.3.1.4.3.5.1.1.3.2.5.2s.5.1.5.1v.5H198v-.4c.1 0 .3 0 .5-.1s.4-.1.5-.2.2-.3.3-.5.1-.6.1-1.1v-4c0-.2 0-.3-.1-.5s-.1-.3-.2-.4c-.1-.1-.3-.2-.6-.3-.2-.1-.4-.1-.6-.1v-.4h2.3l4.6 6.2v-3.9c0-.5 0-.8-.1-1.1-.1-.3-.1-.4-.3-.5-.1-.1-.3-.1-.5-.2s-.4-.1-.6-.1v-.4h3.3v.3h.1z"/></g><g class="st1"><path class="st0" d="M88.6 39.5h-.7c-.1-.5-.4-1-.8-1.6s-.8-.9-1.2-.9c-.2 0-.4 0-.7-.1h-3.1v5.3h1.5c.5 0 .8 0 1.1-.1.3-.1.5-.2.7-.4.1-.1.2-.3.3-.6.1-.3.2-.6.2-.9h.7v5.2h-.7c0-.3-.1-.6-.2-.9-.1-.3-.2-.6-.3-.8-.2-.2-.4-.4-.7-.5-.3-.1-.6-.1-1-.1h-1.5v4.5c0 .2 0 .4.1.5.1.2.2.3.4.4.1 0 .3.1.6.2s.5.1.7.1v.6h-5.7v-.7c.2 0 .4 0 .7-.1.3 0 .5-.1.6-.1.2-.1.3-.2.4-.4s.1-.3.1-.6V38c0-.2 0-.4-.1-.5-.1-.2-.2-.3-.4-.4-.2-.1-.4-.2-.7-.2-.3-.1-.5-.1-.7-.1v-.7h10.3l.1 3.4zm11.8-1.7c.6.6 1 1.3 1.4 2.2.3.9.5 1.8.5 2.8s-.2 2-.5 2.8-.8 1.6-1.4 2.2c-.6.6-1.2 1.1-2 1.4s-1.6.5-2.4.5c-.9 0-1.8-.2-2.5-.5-.8-.3-1.4-.8-2-1.4-.6-.6-1-1.3-1.3-2.2s-.5-1.8-.5-2.8c0-1.1.2-2 .5-2.9.3-.8.8-1.6 1.4-2.2.6-.6 1.3-1.1 2-1.4.8-.3 1.6-.5 2.4-.5.9 0 1.7.2 2.5.5.7.4 1.4.9 1.9 1.5zM99 47.1c.3-.6.6-1.2.8-1.9.2-.7.2-1.5.2-2.4s-.1-1.7-.3-2.5c-.2-.8-.4-1.4-.8-1.9-.3-.5-.8-.9-1.3-1.2s-1.1-.4-1.8-.4-1.4.2-1.9.5-.9.8-1.3 1.4c-.3.5-.5 1.2-.7 1.9s-.2 1.5-.2 2.3c0 .9.1 1.7.2 2.4.2.7.4 1.4.8 1.9.3.5.8 1 1.3 1.3s1.1.5 1.8.5 1.3-.2 1.8-.5c.7-.4 1.1-.8 1.4-1.4zm18.2-10.2c-.2 0-.4 0-.8.1s-.6.2-.8.3c-.2.1-.4.4-.4.9s-.1 1-.1 1.6v5.7c0 .7-.2 1.4-.5 1.9s-.7 1-1.2 1.3-1 .6-1.5.7c-.5.1-1.1.2-1.6.2-.8 0-1.5-.1-2.1-.3s-1.1-.5-1.6-.8c-.4-.4-.7-.8-.9-1.2-.2-.5-.3-.9-.3-1.4v-7.8c0-.2 0-.4-.1-.5s-.2-.3-.4-.4c-.2-.1-.4-.2-.6-.2-.2-.1-.4-.1-.6-.1v-.7h5.5v.7c-.2 0-.4 0-.7.1-.3 0-.5.1-.6.1-.2.1-.4.2-.4.4-.1.2-.1.4-.1.6v7.3c0 .4 0 .7.1 1.1.1.4.2.7.5 1.1.2.3.6.6 1 .8s1 .3 1.7.3 1.3-.1 1.7-.3c.5-.2.8-.5 1.1-.9.3-.3.4-.7.5-1 .1-.4.2-.7.2-1.1V40c0-.7 0-1.2-.1-1.7-.1-.4-.2-.7-.4-.9-.2-.2-.5-.3-.9-.4-.4-.1-.7-.1-.9-.1v-.7h5.4l-.1.7zm14.6 0c-.2 0-.4.1-.8.1-.4.1-.6.2-.8.3-.2.2-.4.5-.4.9-.1.4-.1 1-.1 1.7v9.6h-.8l-8-10.8v6.8c0 .8 0 1.3.1 1.8.1.4.2.7.4.9.1.1.4.3.9.4.4.1.7.2.9.2v.6h-5.4v-.7c.2 0 .4-.1.8-.2s.6-.2.7-.3c.2-.2.4-.4.4-.8s.1-1 .1-1.8v-6.5c0-.3 0-.6-.1-.9-.1-.3-.2-.5-.4-.7-.2-.2-.5-.4-.9-.5s-.7-.2-.9-.2v-.7h3.8l7.4 10v-6.3c0-.8 0-1.4-.1-1.8-.1-.4-.2-.7-.4-.8s-.5-.2-.8-.3-.7-.2-.9-.2V36h5.4l-.1.9zm13.7 6c0 1.1-.2 2.1-.6 2.9-.4.8-1 1.5-1.6 2-.7.5-1.4.9-2.3 1.2s-1.7.4-2.6.4h-5.5v-.7c.2 0 .4 0 .7-.1.3 0 .5-.1.6-.1.2-.1.3-.2.4-.4.1-.2.1-.3.1-.6V38c0-.2 0-.4-.1-.6-.1-.2-.2-.3-.4-.4-.2-.1-.4-.2-.6-.2-.2 0-.4-.1-.6-.1V36h5.8c.8 0 1.6.1 2.3.4.8.2 1.4.6 2 1 .8.6 1.4 1.3 1.8 2.2.4 1 .6 2.1.6 3.3zm-2.3 0c0-.9-.1-1.7-.4-2.4-.2-.7-.6-1.3-1-1.9-.4-.5-.9-.9-1.6-1.2-.6-.3-1.3-.4-2.1-.4h-1.6v10.1c0 .6.2 1 .5 1.2s.8.3 1.5.3c.8 0 1.5-.1 2.1-.4.6-.3 1.1-.7 1.4-1.2.4-.5.7-1.1.8-1.8s.4-1.4.4-2.3zm16.2 6.5h-5.5v-.7c.5 0 .9-.1 1.2-.2.3-.1.5-.2.5-.3V48c0-.1 0-.2-.1-.2l-1.1-2.9h-4.6c-.2.4-.3.8-.4 1.1l-.3.9c-.1.3-.1.5-.2.7v.4c0 .2.2.4.6.6.4.1.8.2 1.3.2v.6h-5v-.7c.2 0 .4 0 .6-.1.2-.1.4-.1.6-.2.2-.2.4-.3.6-.5.1-.2.3-.4.4-.8.7-1.7 1.4-3.5 2.2-5.6s1.5-3.9 2.1-5.5h.7l4.4 11.4.3.6c.1.2.3.3.5.4.1.1.3.2.6.2s.4.1.6.1v.7zm-5.3-5.4-2-5.1-2 5.1h4zm16.5-4.2h-.6c-.1-.2-.2-.5-.3-.8s-.3-.6-.5-.9c-.2-.3-.4-.5-.6-.7-.2-.2-.4-.3-.6-.4-.2 0-.4 0-.7-.1H166v10.5c0 .2 0 .4.1.6.1.2.2.3.5.4.1 0 .3.1.7.2s.6.1.8.1v.7h-6.2v-.7c.2 0 .4 0 .8-.1s.6-.1.7-.1c.2-.1.4-.2.5-.3s.1-.4.1-.6V37h-1.2c-.3 0-.6 0-.8.1-.2 0-.4.1-.6.4-.2.2-.4.5-.6.7-.2.3-.3.6-.5.9s-.2.6-.3.8h-.6v-3.6h11.5v3.5h-.3zm6.8 9.6h-5.9v-.7c.2 0 .4 0 .7-.1.3 0 .5-.1.7-.1.2-.1.4-.2.4-.3.1-.1.1-.3.1-.6v-9.5c0-.2 0-.4-.1-.5s-.2-.3-.5-.4c-.2-.1-.4-.1-.7-.2-.3-.1-.5-.1-.7-.1v-.7h5.9v.7c-.2 0-.4 0-.7.1-.3 0-.5.1-.7.2-.2.1-.4.2-.5.4s-.1.4-.1.6v9.5c0 .2 0 .4.1.5.1.2.2.3.5.4.1 0 .3.1.6.2s.5.1.7.1v.5h.2zm12.2-11.6c.6.6 1 1.3 1.4 2.2.3.9.5 1.8.5 2.8s-.2 2-.5 2.8-.8 1.6-1.4 2.2c-.6.6-1.2 1.1-2 1.4s-1.6.5-2.4.5c-.9 0-1.8-.2-2.5-.5-.8-.3-1.4-.8-2-1.4-.6-.6-1-1.3-1.3-2.2s-.5-1.8-.5-2.8c0-1.1.2-2 .5-2.9.3-.8.8-1.6 1.4-2.2.6-.6 1.3-1.1 2-1.4.8-.3 1.6-.5 2.4-.5.9 0 1.7.2 2.5.5s1.4.9 1.9 1.5zm-1.3 9.3c.3-.6.6-1.2.8-1.9s.2-1.5.2-2.4-.1-1.7-.3-2.5-.4-1.4-.8-1.9c-.3-.5-.8-.9-1.3-1.2s-1.1-.4-1.8-.4-1.4.2-1.9.5-.9.8-1.3 1.4c-.3.5-.5 1.2-.7 1.9s-.2 1.5-.2 2.3c0 .9.1 1.7.2 2.4.2.7.4 1.4.8 1.9.3.5.8 1 1.3 1.3s1.1.5 1.8.5 1.3-.2 1.8-.5c.6-.4 1-.8 1.4-1.4zm18.4-10.2c-.2 0-.4.1-.8.1-.4.1-.6.2-.8.3-.2.2-.4.5-.4.9-.1.4-.1 1-.1 1.7v9.6h-.8l-8.1-10.7v6.8c0 .8 0 1.3.1 1.8.1.4.2.7.4.9.1.1.4.3.9.4.4.1.7.2.9.2v.5h-5.4v-.7c.2 0 .4-.1.8-.2s.6-.2.7-.3c.2-.2.4-.4.4-.8s.1-1 .1-1.8v-6.5c0-.3 0-.6-.1-.9-.1-.3-.2-.5-.4-.7s-.5-.4-.9-.5-.7-.2-.9-.2v-.7h3.8l7.4 10v-6.3c0-.8 0-1.4-.1-1.8-.1-.4-.2-.7-.4-.8s-.5-.2-.8-.3-.7-.2-.9-.2V36h5.4v.9z"/></g><text transform="translate(19.8 59.5)" class="st0 st2" style="font-size:6.6px">Est. 2002</text><text transform="rotate(-91.1 20.47 13.966)" class="st0 st2 st4">I</text><text transform="rotate(-84.301 21.457 12.488)" class="st0 st2 st5">N</text><text transform="rotate(-77.402 21.811 9.994)" class="st0 st2 st4">T</text><text transform="rotate(-70.659 22.447 7.474)" class="st0 st2" style="font-size:3.9848px">E</text><text transform="rotate(-63.947 23.114 4.41)" class="st0 st2" style="font-size:4.0072px">R</text><text transform="rotate(-57.098 23.907 .5)" class="st0 st2 st4">A</text><text transform="rotate(-50.266 24.934 -4.193)" class="st0 st2" style="font-size:4.0049px">C</text><text transform="rotate(-44.193 25.955 -9.833)" class="st0 st2" style="font-size:4.0368px">T</text><text transform="rotate(-38.479 27.192 -16.851)" class="st0 st2" style="font-size:3.9754px">I</text><text transform="rotate(-32.796 29.386 -24.582)" class="st0 st2 st4">O</text><text transform="rotate(-25.302 32.946 -41.504)" class="st0 st2" style="font-size:4.0001px">N</text><text transform="rotate(-14.453 44.854 -96.554)" class="st0 st2" style="font-size:4.007px">D</text><text transform="rotate(-7.499 70.153 -216.86)" class="st0 st2" style="font-size:3.9898px">E</text><text transform="rotate(-1.146 362.48 -1595.91)" class="st0 st2" style="font-size:4.0008px">S</text><text transform="rotate(3.714 -89.365 540.894)" class="st0 st2 st4">I</text><text transform="rotate(9.701 -22.844 220.336)" class="st0 st2" style="font-size:4.02px">G</text><text transform="rotate(17.001 -5.326 138.279)" class="st0 st2 st4">N</text><text transform="rotate(27.298 3.302 97.104)" class="st0 st2" style="font-size:4.0098px">F</text><text transform="rotate(34.002 6.416 82.98)" class="st0 st2 st4">O</text><text transform="rotate(41.347 8.515 72.99)" class="st0 st2" style="font-size:3.9962px">U</text><text transform="rotate(48.799 10.076 65.87)" class="st0 st2 st4">N</text><text transform="rotate(55.998 11.1 60.806)" class="st0 st2 st4">D</text><text transform="rotate(63.301 11.97 56.645)" class="st0 st2 st4">A</text><text transform="rotate(70.117 12.635 53.405)" class="st0 st2" style="font-size:3.9984px">T</text><text transform="rotate(75.298 12.769 51.66)" class="st0 st2 st5">I</text><text transform="rotate(81.298 13.627 49.099)" class="st0 st2 st4">O</text><text transform="rotate(88.699 14.137 46.796) scale(.99996)" class="st0 st2" style="font-size:3.9998px">N</text></svg>
