<?xml version="1.0" encoding="UTF-8"?>
<svg id="Layer_2" data-name="Layer 2" xmlns="http://www.w3.org/2000/svg" viewBox="0 0 1030.95 1030.95">
  <defs>
    <style>
      .cls-1 {
        fill: #99d8de;
      }

      .cls-1, .cls-2, .cls-3, .cls-4 {
        stroke-width: 0px;
      }

      .cls-2 {
        fill: #faf6e8;
      }

      .cls-3 {
        fill: #0c3444;
      }

      .cls-4 {
        fill: #44b5d8;
      }
    </style>
  </defs>
  <g id="circ">
    <circle class="cls-1" cx="515.48" cy="515.48" r="515.48"/>
    <path class="cls-4" d="m179.81,878.67s80.63,62.36,125.87,83.69c20.32,9.58,46.14,20.43,79.24,29.18-17.4-5.15-34.54-11.29-51.39-18.42-58.11-24.58-110.3-59.77-155.12-104.59-44.82-44.82-80.01-97.01-104.59-155.12-25.44-60.15-38.34-124.06-38.34-189.95s12.9-129.79,38.34-189.95c24.58-58.11,59.77-110.3,104.59-155.12,44.82-44.82,97.01-80.01,155.12-104.59,60.15-25.44,124.06-38.34,189.95-38.34s129.79,12.9,189.95,38.34c58.11,24.58,110.3,59.77,155.12,104.59,44.82,44.82,80.01,97.01,104.59,155.12,10.28,24.31,18.51,49.23,24.67,74.65-10.69-54.47-26.31-98.97-51.77-138.75-31.56-49.29-59.56-80.81-68.89-91.49-9.33-10.68-20.89-19.57-20.89-19.57l6.92-3.13c-89.29-82.41-208.61-132.76-339.7-132.76C246.78,22.48,22.48,246.78,22.48,523.48c0,130.78,50.11,249.85,132.18,339.07,6.84,3.78,15.12,9.04,25.15,16.13Z"/>
    <path class="cls-3" d="m515.48,27.48c65.89,0,129.79,12.9,189.95,38.34,58.11,24.58,110.3,59.77,155.12,104.59,44.82,44.82,80.01,97.01,104.59,155.12,25.44,60.15,38.34,124.06,38.34,189.95s-12.9,129.79-38.34,189.95c-24.58,58.11-59.77,110.3-104.59,155.12-44.82,44.82-97.01,80.01-155.12,104.59-60.15,25.44-124.06,38.34-189.95,38.34s-129.79-12.9-189.95-38.34c-58.11-24.58-110.3-59.77-155.12-104.59-44.82-44.82-80.01-97.01-104.59-155.12-25.44-60.15-38.34-124.06-38.34-189.95s12.9-129.79,38.34-189.95c24.58-58.11,59.77-110.3,104.59-155.12,44.82-44.82,97.01-80.01,155.12-104.59,60.15-25.44,124.06-38.34,189.95-38.34m0-13C238.78,14.48,14.48,238.78,14.48,515.48s224.31,501,501,501,501-224.31,501-501S792.17,14.48,515.48,14.48h0Z"/>
  </g>
  <g id="text">
    <g>
      <g>
        <path class="cls-4" d="m279.74,208.29c-1.64,1.23-4.31,2.96-7.16-.81-.14-.18-.41-.55-.55-.73-2.8-3.72-.38-5.78,1.26-7.02,4.33-3.26,12.98-9.77,17.3-13.03,1.64-1.23,4.31-2.88,7.21.96.14.18.41.55.55.73,2.46,3.27.33,5.63-1.31,6.87-4.33,3.26-12.98,9.77-17.3,13.03Z"/>
        <path class="cls-4" d="m362.86,203.58c-1.89.98-3.41,1.44-4.54,1.39-1.14-.05-1.95-.55-2.44-1.5l-33.84-65.41c-.49-.94-.43-1.9.19-2.86.61-.96,1.87-1.93,3.76-2.91l2.53-1.31c1.96-1.01,3.49-1.48,4.59-1.41,1.11.07,1.9.58,2.39,1.52l33.84,65.41c.49.95.44,1.89-.14,2.83-.58.94-1.85,1.92-3.81,2.93l-2.53,1.31Z"/>
        <path class="cls-4" d="m407.94,183.68c-2.7.78-4.44-.18-5.22-2.88l-20.1-69.66c-.29-1.02-.05-1.94.74-2.77.79-.82,2.21-1.53,4.25-2.12l2.74-.79c2.12-.61,3.71-.77,4.78-.49,1.07.28,1.75.94,2.05,1.96l17.73,61.45,25.74-7.43c1.97-.57,3.41.72,4.32,3.86l.82,2.85c.91,3.14.37,4.99-1.6,5.56l-36.26,10.46Z"/>
        <path class="cls-4" d="m479.75,168.25c-2.81.14-4.28-1.19-4.43-4l-3.73-72.41c-.05-1.06.4-1.9,1.35-2.52.96-.62,2.5-.98,4.62-1.09l2.85-.15c2.2-.11,3.79.09,4.77.61.98.52,1.49,1.31,1.55,2.37l3.29,63.87,26.75-1.38c2.05-.11,3.16,1.47,3.33,4.74l.15,2.96c.17,3.26-.77,4.95-2.82,5.05l-37.68,1.94Z"/>
        <path class="cls-4" d="m562.83,171.42c-2.1-.35-3.57-.88-4.41-1.6-.84-.72-1.18-1.6-1-2.65l5.88-35.31-16.75-39.65c-.21-.57-.38-1.08-.5-1.53-.12-.44-.15-.81-.1-1.12.12-.75.72-1.23,1.8-1.43,1.08-.21,2.74-.12,4.99.25l3.6.6c1.8.3,3.12.69,3.96,1.18.84.49,1.48,1.31,1.9,2.45l13.01,32.91-5.74-.95,22.99-27.03c.69-.89,1.55-1.42,2.58-1.59,1.03-.18,2.45-.11,4.25.19l3.04.51c2.17.36,3.72.81,4.63,1.35.91.54,1.31,1.18,1.18,1.93-.05.3-.19.64-.4,1.03-.22.39-.56.81-1.02,1.27l-28.63,32.45-5.82,34.97c-.17,1.05-.78,1.78-1.81,2.18-1.03.41-2.63.43-4.81.07l-2.81-.47Z"/>
        <path class="cls-4" d="m622.84,152.12c-1.92-.72-5.12-1.76-3.17-6.42.09-.21.23-.64.32-.85,1.78-4.25,4.67-3.48,6.6-2.77,5.07,1.89,15.22,5.68,20.29,7.57,1.92.72,4.93,1.7,3.42,6.42-.07.22-.24.64-.32.85-1.52,4.29-4.92,3.48-6.85,2.77-5.07-1.89-15.22-5.67-20.29-7.57Z"/>
      </g>
      <g>
        <path class="cls-4" d="m212,812.44c-1.6-1.6-3.97-4.58-.32-8.24l.71-.71c3.18-3.18,5.78-1.63,7.99.58,4.23,4.23,12.69,12.7,16.92,16.93,1.6,1.61,3.75,3.86.17,7.44l-.71.71c-3.7,3.7-6.23,1.83-7.84.22-4.23-4.23-12.69-12.7-16.92-16.93Z"/>
        <path class="cls-4" d="m257.37,890.35c-2.02-1.21-3.33-2.37-3.94-3.47-.61-1.1-.62-2.16-.01-3.17l41.86-69.81c.6-1.01,1.54-1.5,2.8-1.48,1.26.02,2.9.64,4.92,1.85l4.97,2.98c1.66.99,2.91,2.04,3.77,3.14.86,1.1,1.27,2.33,1.24,3.69l-1.98,42.01c.01,1.28-.03,2.62-.14,4.03-.11,1.41-.3,2.66-.57,3.77.88-.65,1.97-1.41,3.28-2.29,1.31-.88,2.42-1.58,3.33-2.12l36.1-21.25c1.3-.69,2.58-.95,3.85-.78,1.27.17,2.69.73,4.28,1.69l4.86,2.91c2.09,1.25,3.42,2.42,4,3.5.58,1.08.56,2.12-.04,3.13l-41.86,69.81c-.6,1.01-1.52,1.51-2.74,1.51-1.23,0-2.88-.63-4.97-1.88l-1.94-1.17c-2.02-1.21-3.31-2.36-3.89-3.44-.58-1.08-.56-2.12.04-3.13l26.24-43.76c.56-.94,1.11-1.86,1.65-2.76.54-.9,1.09-1.82,1.65-2.75l-.37-.37c-.84.58-1.69,1.1-2.55,1.55-.87.46-1.69.95-2.48,1.45l-29.73,17.73c-1.11.71-2.24.96-3.39.76-1.15-.2-2.56-.8-4.21-1.79l-1.73-1.04c-1.66-.99-2.83-1.94-3.51-2.84-.69-.9-1.01-2.03-.98-3.38l1.66-34.86c.07-.94.11-1.89.11-2.87,0-.98.06-1.97.17-2.98l-.5-.15c-.52.86-1.06,1.77-1.62,2.7-.56.94-1.12,1.87-1.68,2.81l-26.37,43.98c-.61,1.01-1.5,1.53-2.69,1.55-1.19.02-2.83-.59-4.92-1.85l-1.95-1.17Z"/>
        <path class="cls-4" d="m381.11,952.44c-2.28-.57-3.92-1.22-4.9-1.94-.99-.72-1.39-1.45-1.21-2.19.08-.32.22-.64.43-.93s.4-.64.58-1.02l47.48-72.27c.45-.75,1.25-1.18,2.4-1.28s2.62.07,4.42.52l5.38,1.35c1.87.47,3.26,1.01,4.14,1.62.89.61,1.39,1.37,1.51,2.26l7.76,86.12c.06.45.07.84.03,1.18-.04.34-.1.67-.18.99-.19.73-.8,1.21-1.85,1.42-1.05.21-2.59.06-4.63-.45l-3.79-.95c-1.63-.41-2.95-.91-3.97-1.51-1.02-.6-1.58-1.39-1.68-2.37l-4.81-62.13c-.02-1.3-.03-2.65-.03-4.03,0-1.38.04-2.72.1-4l-.37-.09c-.55,1.16-1.13,2.36-1.75,3.59-.61,1.23-1.27,2.41-1.99,3.53l-33.68,52.48c-.53.73-1.31,1.16-2.34,1.3-1.03.13-2.23.02-3.62-.32l-3.42-.86Zm13.83-17.32l3.22-12.83,42.53,10.67-3.22,12.83-42.53-10.67Z"/>
        <path class="cls-4" d="m504.05,973.77c-2.35,0-4.08-.3-5.17-.93-1.09-.62-1.64-1.53-1.65-2.7l-.21-81.4c0-1.18.54-2.08,1.63-2.71,1.09-.63,2.81-.95,5.16-.96h3.15c2.43-.01,4.18.3,5.23.92,1.05.63,1.58,1.53,1.58,2.71l.09,35.03h.5l24.23-35.72c.84-1.18,1.84-1.98,3.02-2.4,1.17-.42,3.06-.64,5.67-.64h2.65c2.44-.01,4.14.15,5.1.48.97.33,1.45.92,1.45,1.76,0,.34-.06.76-.19,1.26-.12.5-.48,1.09-1.07,1.77l-29.62,42.92-.02-9.2,33.76,44.26c.51.75.84,1.38,1.01,1.89.17.5.25.93.25,1.26,0,.93-.54,1.54-1.63,1.83-1.09.29-2.86.45-5.29.45h-3.15c-2.52.02-4.39-.21-5.61-.67-1.22-.46-2.21-1.19-2.97-2.2l-27.56-36.21h-.5s.09,35.53.09,35.53c0,1.18-.52,2.08-1.57,2.71-1.05.63-2.79.95-5.23.96h-3.15Z"/>
        <path class="cls-4" d="m612.08,965.11c-2.86.71-4.65-.45-5.4-3.46l-18.95-76.56c-.75-3.02.31-4.88,3.16-5.59l43.3-10.72c2.12-.53,3.61.97,4.48,4.47l.79,3.18c.87,3.51.24,5.52-1.88,6.05l-31.31,7.75,5.27,21.28,28.01-6.93c2.04-.5,3.49,1,4.36,4.5l.79,3.18c.87,3.51.28,5.51-1.75,6.02l-28.01,6.93,5.75,23.24,31.43-7.78c2.12-.52,3.62.97,4.48,4.47l.79,3.18c.87,3.51.24,5.52-1.88,6.05l-43.42,10.75Z"/>
        <path class="cls-4" d="m729.27,924.75c-3.52,1.8-6.86,3.15-10.02,4.06-3.17.91-6.03,1.45-8.58,1.62-2.55.17-4.68.17-6.37,0-1.2-.14-2.25-.34-3.13-.59-.89-.25-1.54-.79-1.96-1.62-.34-.67-.65-1.55-.92-2.64-.27-1.09-.47-2.21-.59-3.38-.12-1.16-.1-2.19.06-3.07.16-.88.54-1.48,1.14-1.78.67-.34,2.22-.54,4.64-.6,2.42-.06,5.24-.31,8.45-.78,3.21-.46,6.42-1.51,9.64-3.15,2.54-1.3,4.47-2.71,5.77-4.22s2.02-3.2,2.16-5.06c.13-1.86-.33-3.84-1.4-5.93-.99-1.95-2.34-3.33-4.04-4.16-1.7-.83-3.61-1.34-5.73-1.53-2.13-.19-4.42-.15-6.88.11-2.46.27-4.98.45-7.57.54-2.55.17-5.12.19-7.69.04-2.57-.15-5.08-.63-7.53-1.46-2.45-.82-4.77-2.23-6.97-4.22-2.2-1.99-4.17-4.71-5.93-8.15-1.87-3.66-2.8-7.24-2.79-10.74,0-3.49.76-6.78,2.26-9.85,1.49-3.07,3.57-5.85,6.21-8.34,2.65-2.48,5.65-4.58,9.02-6.3,2.24-1.14,4.55-2.08,6.91-2.82,2.36-.73,4.61-1.27,6.75-1.6,2.14-.34,4.02-.4,5.63-.19,1.01.14,1.91.37,2.68.68.77.31,1.29.73,1.56,1.25.31.6.6,1.46.9,2.59.29,1.12.5,2.27.62,3.43.12,1.17.1,2.19-.06,3.07-.16.89-.54,1.48-1.14,1.79-.82.42-2.12.68-3.91.79-1.78.11-3.84.38-6.16.81-2.33.43-4.76,1.3-7.3,2.6-2.4,1.22-4.25,2.59-5.54,4.11-1.3,1.51-2.05,3.15-2.24,4.89-.19,1.75.21,3.6,1.2,5.54,1.11,2.17,2.63,3.63,4.57,4.39,1.94.75,4.17,1.05,6.69.9,2.51-.15,5.18-.33,8-.55,2.89-.25,5.86-.39,8.9-.44,3.04-.04,6.02.3,8.94,1.03s5.66,2.08,8.23,4.07c2.57,1.99,4.85,4.93,6.83,8.82,2.06,4.04,3.19,7.87,3.39,11.5.2,3.62-.42,6.98-1.86,10.07-1.44,3.09-3.43,5.85-5.96,8.28-2.54,2.43-5.49,4.5-8.85,6.21Z"/>
        <path class="cls-4" d="m921.02,691.79c-.65-6.88-4.14-10.26-9.25-7.35-3.45,1.97-3.24,5.45-2.05,9.3,1.33,4.33.27,8.24.01,11.1-.86,9.52-9.26,20.76-21.07,30.83-3.23,2.68-8.11,6.34-15.04,9.35-2.36.95-4.79,1.77-7.27,2.36-1.1.26-2.22.48-3.34.66-1.99.22-4,.22-5.99.02-3.82-.71-7.59-1.2-10.01,2.61-1.13,1.99-1.07,4.36-1.16,6.58-.06,2.54-.23,5.08-.53,7.6-.01.13-.03.26-.05.39,0,.05-.01.09-.02.13-2.05,15.6-7.99,28.09-14.01,35.41-8.64,10.52-28.54,28.27-37.22,35-.28.22-1.07.83-1.35,1.05-1.39,1.07-4.07,3-6.02,4.39-1.25.89-3.31,2.54-5.27,3.79-2.95,1.88-4.87,3.32-6.49,4.34-2.55,1.62-3.03,1.87-5.04,3.31-.43.31-.81.58-1.11.8-.33.24-.99.85-1.21,1.13-.4.51-.54.73-.86,1.29-.83,1.46-.54,4.14.84,5.8,1.29,1.44,2.65,2.16,4.21,2.47.96.19,1.97.23,2.89-.14.27-.11.58-.2.83-.33.58-.29,1.51-.75,2.22-1.23,3.21-2.21,5.71-4.42,8.06-6.27.32-.25.95-.75,1.27-1,4.15-3.23,10.49-8.05,16.34-12.71,12.62-10.07,22.41-18.44,33.1-30.58,11.33-12.89,17.55-27.27,19.67-44.41.44-2.73.64-5.47.78-8.22,11.99,1.05,28.36-5.53,40.14-16.16,9.63-8.8,18.31-19.51,22.22-32.12,1.89-6.71,2.4-12.25,1.74-19.2Z"/>
      </g>
    </g>
    <g>
      <g>
        <path class="cls-3" d="m273.74,202.29c-1.64,1.23-4.31,2.96-7.16-.81-.14-.18-.41-.55-.55-.73-2.8-3.72-.38-5.78,1.26-7.02,4.33-3.26,12.98-9.77,17.3-13.03,1.64-1.23,4.31-2.88,7.21.96.14.18.41.55.55.73,2.46,3.27.33,5.63-1.31,6.87-4.33,3.26-12.98,9.77-17.3,13.03Z"/>
        <path class="cls-3" d="m356.86,197.58c-1.89.98-3.41,1.44-4.54,1.39-1.14-.05-1.95-.55-2.44-1.5l-33.84-65.41c-.49-.94-.43-1.9.19-2.86.61-.96,1.87-1.93,3.76-2.91l2.53-1.31c1.96-1.01,3.49-1.48,4.59-1.41,1.11.07,1.9.58,2.39,1.52l33.84,65.41c.49.95.44,1.89-.14,2.83-.58.94-1.85,1.92-3.81,2.93l-2.53,1.31Z"/>
        <path class="cls-3" d="m401.94,177.68c-2.7.78-4.44-.18-5.22-2.88l-20.1-69.66c-.29-1.02-.05-1.94.74-2.77.79-.82,2.21-1.53,4.25-2.12l2.74-.79c2.12-.61,3.71-.77,4.78-.49,1.07.28,1.75.94,2.05,1.96l17.73,61.45,25.74-7.43c1.97-.57,3.41.72,4.32,3.86l.82,2.85c.91,3.14.37,4.99-1.6,5.56l-36.26,10.46Z"/>
        <path class="cls-3" d="m473.75,162.25c-2.81.14-4.28-1.19-4.43-4l-3.73-72.41c-.05-1.06.4-1.9,1.35-2.52.96-.62,2.5-.98,4.62-1.09l2.85-.15c2.2-.11,3.79.09,4.77.61.98.52,1.49,1.31,1.55,2.37l3.29,63.87,26.75-1.38c2.05-.11,3.16,1.47,3.33,4.74l.15,2.96c.17,3.26-.77,4.95-2.82,5.05l-37.68,1.94Z"/>
        <path class="cls-3" d="m556.83,165.42c-2.1-.35-3.57-.88-4.41-1.6-.84-.72-1.18-1.6-1-2.65l5.88-35.31-16.75-39.65c-.21-.57-.38-1.08-.5-1.53-.12-.44-.15-.81-.1-1.12.12-.75.72-1.23,1.8-1.43,1.08-.21,2.74-.12,4.99.25l3.6.6c1.8.3,3.12.69,3.96,1.18.84.49,1.48,1.31,1.9,2.45l13.01,32.91-5.74-.95,22.99-27.03c.69-.89,1.55-1.42,2.58-1.59,1.03-.18,2.45-.11,4.25.19l3.04.51c2.17.36,3.72.81,4.63,1.35.91.54,1.31,1.18,1.18,1.93-.05.3-.19.64-.4,1.03-.22.39-.56.81-1.02,1.27l-28.63,32.45-5.82,34.97c-.17,1.05-.78,1.78-1.81,2.18-1.03.41-2.63.43-4.81.07l-2.81-.47Z"/>
        <path class="cls-3" d="m616.84,146.12c-1.92-.72-5.12-1.76-3.17-6.42.09-.21.23-.64.32-.85,1.78-4.25,4.67-3.48,6.6-2.77,5.07,1.89,15.22,5.68,20.29,7.57,1.92.72,4.93,1.7,3.42,6.42-.07.22-.24.64-.32.85-1.52,4.29-4.92,3.48-6.85,2.77-5.07-1.89-15.22-5.67-20.29-7.57Z"/>
      </g>
      <g>
        <path class="cls-3" d="m206,806.44c-1.6-1.6-3.97-4.58-.32-8.24l.71-.71c3.18-3.18,5.78-1.63,7.99.58,4.23,4.23,12.69,12.7,16.92,16.93,1.6,1.61,3.75,3.86.17,7.44l-.71.71c-3.7,3.7-6.23,1.83-7.84.22-4.23-4.23-12.69-12.7-16.92-16.93Z"/>
        <path class="cls-3" d="m251.37,884.35c-2.02-1.21-3.33-2.37-3.94-3.47-.61-1.1-.62-2.16-.01-3.17l41.86-69.81c.6-1.01,1.54-1.5,2.8-1.48,1.26.02,2.9.64,4.92,1.85l4.97,2.98c1.66.99,2.91,2.04,3.77,3.14.86,1.1,1.27,2.33,1.24,3.69l-1.98,42.01c.01,1.28-.03,2.62-.14,4.03-.11,1.41-.3,2.66-.57,3.77.88-.65,1.97-1.41,3.28-2.29,1.31-.88,2.42-1.58,3.33-2.12l36.1-21.25c1.3-.69,2.58-.95,3.85-.78,1.27.17,2.69.73,4.28,1.69l4.86,2.91c2.09,1.25,3.42,2.42,4,3.5.58,1.08.56,2.12-.04,3.13l-41.86,69.81c-.6,1.01-1.52,1.51-2.74,1.51-1.23,0-2.88-.63-4.97-1.88l-1.94-1.17c-2.02-1.21-3.31-2.36-3.89-3.44-.58-1.08-.56-2.12.04-3.13l26.24-43.76c.56-.94,1.11-1.86,1.65-2.76.54-.9,1.09-1.82,1.65-2.75l-.37-.37c-.84.58-1.69,1.1-2.55,1.55-.87.46-1.69.95-2.48,1.45l-29.73,17.73c-1.11.71-2.24.96-3.39.76-1.15-.2-2.56-.8-4.21-1.79l-1.73-1.04c-1.66-.99-2.83-1.94-3.51-2.84-.69-.9-1.01-2.03-.98-3.38l1.66-34.86c.07-.94.11-1.89.11-2.87,0-.98.06-1.97.17-2.98l-.5-.15c-.52.86-1.06,1.77-1.62,2.7-.56.94-1.12,1.87-1.68,2.81l-26.37,43.98c-.61,1.01-1.5,1.53-2.69,1.55-1.19.02-2.83-.59-4.92-1.85l-1.95-1.17Z"/>
        <path class="cls-3" d="m375.11,946.44c-2.28-.57-3.92-1.22-4.9-1.94-.99-.72-1.39-1.45-1.21-2.19.08-.32.22-.64.43-.93s.4-.64.58-1.02l47.48-72.27c.45-.75,1.25-1.18,2.4-1.28s2.62.07,4.42.52l5.38,1.35c1.87.47,3.26,1.01,4.14,1.62.89.61,1.39,1.37,1.51,2.26l7.76,86.12c.06.45.07.84.03,1.18-.04.34-.1.67-.18.99-.19.73-.8,1.21-1.85,1.42-1.05.21-2.59.06-4.63-.45l-3.79-.95c-1.63-.41-2.95-.91-3.97-1.51-1.02-.6-1.58-1.39-1.68-2.37l-4.81-62.13c-.02-1.3-.03-2.65-.03-4.03,0-1.38.04-2.72.1-4l-.37-.09c-.55,1.16-1.13,2.36-1.75,3.59-.61,1.23-1.27,2.41-1.99,3.53l-33.68,52.48c-.53.73-1.31,1.16-2.34,1.3-1.03.13-2.23.02-3.62-.32l-3.42-.86Zm13.83-17.32l3.22-12.83,42.53,10.67-3.22,12.83-42.53-10.67Z"/>
        <path class="cls-3" d="m498.05,967.77c-2.35,0-4.08-.3-5.17-.93-1.09-.62-1.64-1.53-1.65-2.7l-.21-81.4c0-1.18.54-2.08,1.63-2.71,1.09-.63,2.81-.95,5.16-.96h3.15c2.43-.01,4.18.3,5.23.92,1.05.63,1.58,1.53,1.58,2.71l.09,35.03h.5l24.23-35.72c.84-1.18,1.84-1.98,3.02-2.4,1.17-.42,3.06-.64,5.67-.64h2.65c2.44-.01,4.14.15,5.1.48.97.33,1.45.92,1.45,1.76,0,.34-.06.76-.19,1.26-.12.5-.48,1.09-1.07,1.77l-29.62,42.92-.02-9.2,33.76,44.26c.51.75.84,1.38,1.01,1.89.17.5.25.93.25,1.26,0,.93-.54,1.54-1.63,1.83-1.09.29-2.86.45-5.29.45h-3.15c-2.52.02-4.39-.21-5.61-.67-1.22-.46-2.21-1.19-2.97-2.2l-27.56-36.21h-.5s.09,35.53.09,35.53c0,1.18-.52,2.08-1.57,2.71-1.05.63-2.79.95-5.23.96h-3.15Z"/>
        <path class="cls-3" d="m606.08,959.11c-2.86.71-4.65-.45-5.4-3.46l-18.95-76.56c-.75-3.02.31-4.88,3.16-5.59l43.3-10.72c2.12-.53,3.61.97,4.48,4.47l.79,3.18c.87,3.51.24,5.52-1.88,6.05l-31.31,7.75,5.27,21.28,28.01-6.93c2.04-.5,3.49,1,4.36,4.5l.79,3.18c.87,3.51.28,5.51-1.75,6.02l-28.01,6.93,5.75,23.24,31.43-7.78c2.12-.52,3.62.97,4.48,4.47l.79,3.18c.87,3.51.24,5.52-1.88,6.05l-43.42,10.75Z"/>
        <path class="cls-3" d="m723.27,918.75c-3.52,1.8-6.86,3.15-10.02,4.06-3.17.91-6.03,1.45-8.58,1.62-2.55.17-4.68.17-6.37,0-1.2-.14-2.25-.34-3.13-.59-.89-.25-1.54-.79-1.96-1.62-.34-.67-.65-1.55-.92-2.64-.27-1.09-.47-2.21-.59-3.38-.12-1.16-.1-2.19.06-3.07.16-.88.54-1.48,1.14-1.78.67-.34,2.22-.54,4.64-.6,2.42-.06,5.24-.31,8.45-.78,3.21-.46,6.42-1.51,9.64-3.15,2.54-1.3,4.47-2.71,5.77-4.22s2.02-3.2,2.16-5.06c.13-1.86-.33-3.84-1.4-5.93-.99-1.95-2.34-3.33-4.04-4.16-1.7-.83-3.61-1.34-5.73-1.53-2.13-.19-4.42-.15-6.88.11-2.46.27-4.98.45-7.57.54-2.55.17-5.12.19-7.69.04-2.57-.15-5.08-.63-7.53-1.46-2.45-.82-4.77-2.23-6.97-4.22-2.2-1.99-4.17-4.71-5.93-8.15-1.87-3.66-2.8-7.24-2.79-10.74,0-3.49.76-6.78,2.26-9.85,1.49-3.07,3.57-5.85,6.21-8.34,2.65-2.48,5.65-4.58,9.02-6.3,2.24-1.14,4.55-2.08,6.91-2.82,2.36-.73,4.61-1.27,6.75-1.6,2.14-.34,4.02-.4,5.63-.19,1.01.14,1.91.37,2.68.68.77.31,1.29.73,1.56,1.25.31.6.6,1.46.9,2.59.29,1.12.5,2.27.62,3.43.12,1.17.1,2.19-.06,3.07-.16.89-.54,1.48-1.14,1.79-.82.42-2.12.68-3.91.79-1.78.11-3.84.38-6.16.81-2.33.43-4.76,1.3-7.3,2.6-2.4,1.22-4.25,2.59-5.54,4.11-1.3,1.51-2.05,3.15-2.24,4.89-.19,1.75.21,3.6,1.2,5.54,1.11,2.17,2.63,3.63,4.57,4.39,1.94.75,4.17,1.05,6.69.9,2.51-.15,5.18-.33,8-.55,2.89-.25,5.86-.39,8.9-.44,3.04-.04,6.02.3,8.94,1.03s5.66,2.08,8.23,4.07c2.57,1.99,4.85,4.93,6.83,8.82,2.06,4.04,3.19,7.87,3.39,11.5.2,3.62-.42,6.98-1.86,10.07-1.44,3.09-3.43,5.85-5.96,8.28-2.54,2.43-5.49,4.5-8.85,6.21Z"/>
        <path class="cls-3" d="m915.02,685.79c-.65-6.88-4.14-10.26-9.25-7.35-3.45,1.97-3.24,5.45-2.05,9.3,1.33,4.33.27,8.24.01,11.1-.86,9.52-9.26,20.76-21.07,30.83-3.23,2.68-8.11,6.34-15.04,9.35-2.36.95-4.79,1.77-7.27,2.36-1.1.26-2.22.48-3.34.66-1.99.22-4,.22-5.99.02-3.82-.71-7.59-1.2-10.01,2.61-1.13,1.99-1.07,4.36-1.16,6.58-.06,2.54-.23,5.08-.53,7.6-.01.13-.03.26-.05.39,0,.05-.01.09-.02.13-2.05,15.6-7.99,28.09-14.01,35.41-8.64,10.52-28.54,28.27-37.22,35-.28.22-1.07.83-1.35,1.05-1.39,1.07-4.07,3-6.02,4.39-1.25.89-3.31,2.54-5.27,3.79-2.95,1.88-4.87,3.32-6.49,4.34-2.55,1.62-3.03,1.87-5.04,3.31-.43.31-.81.58-1.11.8-.33.24-.99.85-1.21,1.13-.4.51-.54.73-.86,1.29-.83,1.46-.54,4.14.84,5.8,1.29,1.44,2.65,2.16,4.21,2.47.96.19,1.97.23,2.89-.14.27-.11.58-.2.83-.33.58-.29,1.51-.75,2.22-1.23,3.21-2.21,5.71-4.42,8.06-6.27.32-.25.95-.75,1.27-1,4.15-3.23,10.49-8.05,16.34-12.71,12.62-10.07,22.41-18.44,33.1-30.58,11.33-12.89,17.55-27.27,19.67-44.41.44-2.73.64-5.47.78-8.22,11.99,1.05,28.36-5.53,40.14-16.16,9.63-8.8,18.31-19.51,22.22-32.12,1.89-6.71,2.4-12.25,1.74-19.2Z"/>
      </g>
    </g>
  </g>
  <g id="illy">
    <g>
      <path class="cls-4" d="m482.87,288.89s0,0,0-.01c-8.28-11.85-18.96-27.68-30.1-36.33l-5.29,5.28s8.36,10.83,11.9,19.71c-.94-.02-1.9-.02-2.9.02-10.52.48-25.18,5.74-35.25,28.06-5.77,12.79-9.76,29.9-12.57,53.86-1.1,9.37-2.81,18.43-4.47,27.19-2.08,10.96-4.03,21.26-4.4,30.58l-18.52-3.97c5.62,7.4,18.03,22.51,24.96,30.63.96,1.32,2.03,2.6,3.24,3.81.15.15.31.29.46.44.01.02.03.04.05.05.19.21.37.37.55.52,5.86,5.38,13.08,8.23,20.75,8.23,1.31,0,2.64-.08,3.97-.25,15.66-1.97,28.19-14.46,34.17-24.55,8.46-14.27,14.13-45.59,20.04-88.22,3.76-27.13,1.73-44.3-6.59-55.07Z"/>
      <path class="cls-4" d="m984.17,498.9s-.03-.04-.05-.06c-4.67-5.42-20.8-26.84-26.72-32.76l-10.86-1.62,11.23,17.86,5.83,12.5c-6.88,3.83-10.9,12.2-11.31,23.68-.95,26.37-33.75,62-93.4,67.3,10.64-35.09,17.54-67.96,21.6-90.56l.18-1.01h0c.94-5.29,1.82-10.48,2.6-15.42.12-.79.22-1.57.29-2.35.39-1.91.8-4.1,1.14-6.42,1.55-8.21,3.16-16.95,4.46-25.38,3.16-20.49,9.92-46.66,20.67-79.99,4.04-12.51,7.39-23.64,7.59-33.11.17-8.09-1.97-14.86-6.36-20.27-.04-.05-.06-.1-.1-.15-4.46-6.2-20.59-25.83-26.44-32.53l-9.5-2.47,5.76,15.69,3.87,6.51c-5.56-.37-11.02.57-16.02,2.87-14.57,6.7-24.41,23.76-29.26,50.71-1.96,10.87-3.53,20.55-4.92,29.09-4.42,27.13-7.09,43.51-14.07,50.5-2.54,2.54-4.68,2.92-5.43,2.56-1.15-.55-2.74-3.72-2.1-9.9.63-6.03,1.67-13.92,2.77-22.26,3.03-22.93,6.46-48.92,5.03-61.88-1.4-12.68-5.56-22.8-11.75-29.5,0,0,0,0,0,0-4.57-5-16.5-22.51-26.15-32.16l-10.66-.11,13.54,17.32,2.84,5.81c-.06,0-.11,0-.17,0-19.11,0-40.47,16.74-42.24,53.49-2.81,58.47-9.67,95.54-20.39,110.19-15.08,20.6-21.19,22.93-24.5,23.26-.72-1.81-2.01-7.05-.37-19.51,1.49-11.32,4.41-29.57,7.5-48.9,3.3-20.61,6.71-41.93,8.58-56.15.75-5.73,2.04-13.05,3.4-20.8,6.88-39.15,10.7-66.69.52-80.69-.08-.12-.16-.23-.24-.35-4.83-6.62-19.04-24.23-25.91-31.88-3.32-3.7-11.47-3.53-11.47-3.53l10.71,16.83,2.27,4.76c-3.94-.56-7.87-.41-11.69.51-8.6,2.08-20.48,8.98-28.23,29.98-8.14,22.05-10.98,45.46-13.27,64.27-.85,7.02-1.66,13.65-2.62,19.26-2.03,11.77-3.44,20.73-4.69,28.63-1.02,6.43-1.89,11.99-2.92,17.96l-.04.22c-7.53,43.68-13.17,80.32-10.44,103.69l-19.03-18.96,2.44,13.73v10.72c-6.02,2.84-11.96,8.12-17.75,15.83l-1.36,1.81c-7.87,10.5-17.67,23.57-24.95,23.57s-8.08-16.12-8.08-23.06c0-17.5,1.3-25.96,2.07-29.43.78-1.03,2.47-2.95,3.87-4.54,2.09-2.37,4.68-5.31,7.63-8.94,7.07-8.7,23.64-32.11,31.73-49.33,8.25-17.58,35.18-78.62,35.18-125.94,0-21.48-4.87-37.99-14.45-49.2-.12-.15-.24-.31-.37-.46-4.71-5.46-21.68-28.39-29.27-35.36-6.45-5.92-14.23-5.23-14.23-5.23l5.88,8.11,14.58,16.66,1.5,2.33c-4.94-1.37-10.24-1.99-15.84-1.79-24.18.85-56.65,29.9-69.21,82.08-10.07,41.87-20.05,108.19-26.65,152.08-1.2,7.97-2.27,15.12-3.2,21.11-1.11,7.18-2.04,13.96-2.93,20.51-3.62,26.49-6.48,47.41-17.28,60.77-7.95,9.83-11.73,12.03-12.91,12.52-.32-.21-.85-.63-1.63-1.41-.34-1.33-1.04-6.14,1.26-19.52,1.85-10.74,4.96-23.19,7.7-34.16,1.4-5.62,2.73-10.92,3.77-15.55,1.77-7.82,6.52-34.69-6.44-52.27-1.06-1.44-2.21-2.76-3.44-3.97,0,0,0,0,0,0-8.51-9.97-33.47-35.39-33.47-35.39l9.44,20.94,2.53,5.8c-10.13-.05-23.78,4.68-35.45,25.38-8.39,14.88-14.54,35.72-18.29,61.95-.56,3.91-1.2,7.98-1.82,11.92-2.67,16.93-5.51,35.01-3.69,51.65l-7.54-3.67-10.12-2.08c9.66,15.13,23.77,31.82,31.97,40.03.05.05.09.08.14.13,2.37,2.61,5.06,5.1,8.15,7.41,10.95,8.2,23.13,12.43,35.64,12.43,2.72,0,5.45-.2,8.2-.6,17.92-2.63,35.48-13.97,48.17-31.14,8.54-11.55,13.84-20.03,17.25-26.43,8.71,8.1,23.23,16.3,45.38,14,31.58-3.28,49.95-23.57,66.06-44.06l2.24-2.84c7.9-10.04,14.73-18.7,18.87-26.42,1.85-3.45,3.13-6.73,3.87-9.86,7.12,6.88,15.77,12.05,24.95,14.68,13.39,3.83,27.18,2.09,39.86-5.04,26.61-14.96,42.25-29.17,52.31-47.52,2.16-3.94,3.95-7.73,5.42-11.21,8.65,6.96,21.17,12.86,34.8,12.22,6.84-.32,13.43-2.01,19.73-5.05-4.41,25.13-12.04,50.07-24.71,80.79-.74,0-1.48,0-2.22,0-67.72,0-145.4,21.79-220.02,61.88-31.67,17.02-62.97,40.2-85.87,63.61-25.1,25.66-38.21,49.76-38.38,70.28l-.17-.18-18.47-6.78c7.84,11.7,15.92,21.05,27.18,33.68,0,0,0,0,0,0,10.55,14.25,30.73,23.94,60.31,28.91,12.3,2.07,25.03,3.09,38.05,3.09,41.07,0,85-10.16,127.04-29.71,53.97-25.11,99.93-63.14,129.42-107.09,10.44-15.56,20.27-33.91,29.27-54.64,31.39,1.1,62.14.27,92.5-12.45,36.22-15.17,59.88-48.4,63.29-88.89,1.83-21.79-1.18-37.87-8.51-46.16Zm-277.66,196.53c-25.7,19.89-62.16,36.84-100.03,46.48-31.07,7.91-52.27,8.08-60.48,6.23,10.94-22.56,60.26-67.27,183.72-98.01,8.39-2.09,17.16-3.57,26.74-4.48-13.69,17.98-30.42,34.66-49.95,49.78Z"/>
      <path class="cls-4" d="m368.92,332.3s-.05-.07-.07-.1c-6.66-9.22-23.26-29.97-31.42-38.14l-8.18-.1,14.02,18.94c-9.75-4.1-21.19-6.5-34.28-7.15-49.56-2.42-138.04,36.61-177.9,90.62-21.73,29.44-30.33,63.61-23.59,93.77.14.65.32,1.28.48,1.92l-5.71-4.32-8.9-1.37c7.74,12.01,26.54,35.83,37.4,45.75.03.02.05.04.08.06,5.39,5.19,11.53,9.7,18.36,13.39,39.62,21.41,68.1,5.19,75.89-.29,10.69-7.52,16.28-17.17,14.96-25.81-.71-4.66-2.5-8.94-5.26-12.77-.01-.02-.03-.04-.04-.06-.02-.03-.05-.07-.07-.1-.03-.04-.07-.09-.1-.13-4.04-5.51-22.77-30.2-28.96-35.48-4-3.41-11.5-1.03-11.5-1.03,0,0,3.83,3.46,7.11,7.78,2.33,3.06,3.6,7.05,3.65,11.58-.86-.2-1.73-.39-2.61-.57-10.64-2.14-16.38-9.45-16.38-15.25,0-18.66,13.56-37.5,40.31-55.99,14.25-9.85,29.11-17.9,41.85-22.67,14.6-5.46,22.06-4.92,24.17-3.74.91.51,1.11,3.15,1,5.26-1.7,31.87-22.77,155.84-32,200.87-1.16,5.68-2.26,11.65-3.33,17.42-8.39,45.57-15.95,75.53-43.47,76.76-6.32.29-11.22-1.25-14.95-4.68-4.87-4.47-6.72-11.35-6.82-13.81,0-.07,0-.12,0-.18,1.33-.89,4.89-2.01,7.1-2.7,6.32-1.99,14.19-4.46,19.16-11.43,5.45-7.64,8.63-21.48,2.76-33.8-1.02-2.13-2.79-4.33-4.92-7.35,0,0,0,0,0,0-6.42-8.29-16.13-21.35-25.8-31.77-3.63-3.92-8.44.7-4.85,4.28,2.42,2.42,4.7,8.12,6.21,15.31-1.87-.29-3.84-.51-5.94-.64-15.98-1-31.97,5.57-45.05,18.49-15.97,15.77-25.24,38.79-24.18,60.07.22,4.51.9,9.02,1.96,13.47l-14.86-6.12c8.23,13.12,22.27,29.75,35.46,44.11.17.19.34.36.5.52,1.01,1.06,2.04,2.11,3.11,3.13,12.45,11.88,34.55,26.05,69.13,26.05,26.9,0,50.81-7.65,71.07-22.74,16.43-12.23,30.1-29.06,40.65-50.01,14.45-28.71,24.47-96.71,31.09-141.7,1.59-10.79,2.96-20.1,4.05-26.43l1.44-8.33c6.67-38.45,20.54-118.46,20.54-143.42,0-15.2-4.25-28.68-12.34-39.35Z"/>
      <g id="dark_outline_1" data-name="dark outline 1">
        <path class="cls-4" d="m339.03,295.69c-12.56-13.35-31.42-20.73-56.05-21.94-49.56-2.42-138.04,36.61-177.9,90.62-21.73,29.44-30.33,63.61-23.59,93.77,5.39,24.12,20.2,43.8,41.71,55.42,39.62,21.41,68.1,5.19,75.89-.29,10.69-7.52,16.28-17.17,14.96-25.81-2.32-15.2-16.09-26.42-37.79-30.79-10.64-2.14-16.38-9.45-16.38-15.25,0-18.66,13.56-37.5,40.31-55.99,14.25-9.85,29.11-17.9,41.85-22.67,14.6-5.46,22.06-4.92,24.17-3.74.91.51,1.11,3.15,1,5.26-1.7,31.87-22.77,155.84-32,200.87-1.16,5.68-2.26,11.65-3.33,17.42-8.39,45.57-15.95,75.53-43.47,76.76-6.32.29-11.22-1.25-14.95-4.68-4.87-4.47-6.72-11.35-6.82-13.81,0-.07,0-.12,0-.18,1.33-.89,4.89-2.01,7.1-2.7,6.32-1.99,14.19-4.46,19.16-11.43,5.45-7.64,8.63-21.48,2.76-33.8-3.3-6.92-12.28-18.75-35.31-20.18-15.98-1-31.97,5.57-45.05,18.49-15.97,15.77-25.24,38.79-24.18,60.07,1,20.1,10.53,40.19,26.16,55.11,12.45,11.88,34.55,26.05,69.13,26.05,26.9,0,50.81-7.65,71.07-22.74,16.43-12.23,30.1-29.06,40.65-50.01,14.45-28.71,24.47-96.71,31.09-141.7,1.59-10.79,2.96-20.1,4.05-26.43l1.44-8.33c6.67-38.45,20.54-118.46,20.54-143.42,0-17.48-5.61-32.68-16.23-43.96Z"/>
        <path class="cls-4" d="m405.28,424.99c1.31,0,2.64-.08,3.97-.25,15.66-1.97,28.19-14.46,34.17-24.55,8.46-14.27,14.13-45.59,20.04-88.22,4-28.81,1.46-46.39-8.21-57-4.21-4.61-11.92-9.99-24.78-9.4-10.52.48-25.18,5.74-35.25,28.06-5.77,12.79-9.76,29.9-12.57,53.86-1.1,9.37-2.81,18.43-4.47,27.19-4.77,25.16-8.88,46.88,5.29,61.06,6.04,6.04,13.67,9.25,21.81,9.25Z"/>
        <path class="cls-4" d="m954.45,463.61c-4.99-3.35-11.08-3.77-16.3-1.11-7.23,3.68-11.44,12.21-11.87,24-.95,26.37-33.75,62-93.4,67.3,10.64-35.09,17.54-67.96,21.6-90.56l.18-1.01h0c.94-5.29,1.82-10.48,2.6-15.42.12-.79.22-1.57.29-2.35.39-1.91.8-4.1,1.14-6.42,1.55-8.21,3.16-16.95,4.46-25.38,3.16-20.49,9.92-46.66,20.67-79.99,4.04-12.51,7.39-23.64,7.59-33.11.26-12.29-4.79-21.56-15.01-27.56-11.12-6.52-23.43-7.54-33.78-2.78-14.57,6.7-24.41,23.76-29.26,50.71-1.96,10.87-3.53,20.55-4.92,29.09-4.42,27.13-7.09,43.51-14.07,50.5-2.54,2.54-4.68,2.92-5.43,2.56-1.15-.55-2.74-3.72-2.1-9.9.63-6.03,1.67-13.92,2.77-22.26,3.03-22.93,6.46-48.92,5.03-61.88-2.63-23.84-15.02-38.65-32.34-38.65-19.11,0-40.47,16.74-42.24,53.49-2.81,58.47-9.67,95.54-20.39,110.19-15.08,20.6-21.19,22.93-24.5,23.26-.72-1.81-2.01-7.05-.37-19.51,1.49-11.32,4.41-29.57,7.5-48.9,3.3-20.61,6.71-41.93,8.58-56.15.75-5.73,2.04-13.05,3.4-20.8,7.48-42.56,11.36-71.41-2.45-84.05-10.09-9.24-22.24-12.99-33.35-10.3-8.6,2.08-20.48,8.98-28.23,29.98-8.14,22.05-10.98,45.46-13.27,64.27-.85,7.02-1.66,13.65-2.62,19.26-2.03,11.77-3.44,20.73-4.69,28.63-1.02,6.43-1.89,11.99-2.92,17.96l-.04.22c-7.98,46.32-13.85,84.75-9.85,107.8-2.6-.85-5.04-1.1-7.08-1.07-9.46.15-18.83,6.3-27.84,18.29l-1.36,1.81c-7.87,10.5-17.67,23.57-24.95,23.57s-8.08-16.12-8.08-23.06c0-17.5,1.3-25.96,2.07-29.43.78-1.03,2.47-2.95,3.87-4.54,2.09-2.37,4.68-5.31,7.63-8.94,7.07-8.7,23.64-32.11,31.73-49.33,8.25-17.58,35.18-78.62,35.18-125.94,0-23.6-5.86-41.23-17.41-52.38-9.01-8.7-21.04-13.03-34.79-12.56-24.18.85-56.65,29.9-69.21,82.08-10.07,41.87-20.05,108.19-26.65,152.08-1.2,7.97-2.27,15.12-3.2,21.11-1.11,7.18-2.04,13.96-2.93,20.51-3.62,26.49-6.48,47.41-17.28,60.77-7.95,9.83-11.73,12.03-12.91,12.52-.32-.21-.85-.63-1.63-1.41-.34-1.33-1.04-6.14,1.26-19.52,1.85-10.74,4.96-23.19,7.7-34.16,1.4-5.62,2.73-10.92,3.77-15.55,1.77-7.82,6.52-34.69-6.44-52.27-5.51-7.47-13.32-11.8-22.59-12.53-10.29-.8-25.21,2.93-37.81,25.29-8.39,14.88-14.54,35.72-18.29,61.95-.56,3.91-1.2,7.98-1.82,11.92-5.24,33.24-11.18,70.93,18.92,93.48,10.95,8.2,23.13,12.43,35.64,12.43,2.72,0,5.45-.2,8.2-.6,17.92-2.63,35.48-13.97,48.17-31.14,8.54-11.55,13.84-20.03,17.25-26.43,8.71,8.1,23.23,16.3,45.38,14,31.58-3.28,49.95-23.57,66.06-44.06l2.24-2.84c7.9-10.04,14.73-18.7,18.87-26.42,1.85-3.45,3.13-6.73,3.87-9.86,7.12,6.88,15.77,12.05,24.95,14.68,13.39,3.83,27.18,2.09,39.86-5.04,26.61-14.96,42.25-29.17,52.31-47.52,2.16-3.94,3.95-7.73,5.42-11.21,8.65,6.96,21.17,12.86,34.8,12.22,6.84-.32,13.43-2.01,19.73-5.05-4.41,25.13-12.04,50.07-24.71,80.79-.74,0-1.48,0-2.22,0-67.72,0-145.4,21.79-220.02,61.88-31.67,17.02-62.97,40.2-85.87,63.61-28.37,29-41.44,56.01-37.79,78.11,4.09,24.81,27.06,40.89,68.27,47.81,12.3,2.07,25.03,3.09,38.05,3.09,41.07,0,85-10.16,127.04-29.71,53.97-25.11,99.93-63.14,129.42-107.09,10.44-15.56,20.27-33.91,29.27-54.64,31.39,1.1,62.14.27,92.5-12.45,36.22-15.17,59.88-48.4,63.29-88.89,2.12-25.17-2.23-42.73-12.23-49.45Zm-223.99,150.04c-13.69,17.98-30.42,34.66-49.95,49.78-25.7,19.89-62.16,36.84-100.03,46.48-31.07,7.91-52.27,8.08-60.48,6.23,10.94-22.56,60.26-67.27,183.72-98.01,8.39-2.09,17.16-3.57,26.74-4.48Z"/>
      </g>
    </g>
    <g>
      <path class="cls-3" d="m470.87,276.89s0,0,0-.01c-8.28-11.85-18.96-27.68-30.1-36.33l-5.29,5.28s8.36,10.83,11.9,19.71c-.94-.02-1.9-.02-2.9.02-10.52.48-25.18,5.74-35.25,28.06-5.77,12.79-9.76,29.9-12.57,53.86-1.1,9.37-2.81,18.43-4.47,27.19-2.08,10.96-4.03,21.26-4.4,30.58l-18.52-3.97c5.62,7.4,18.03,22.51,24.96,30.63.96,1.32,2.03,2.6,3.24,3.81.15.15.31.29.46.44.01.02.03.04.05.05.19.21.37.37.55.52,5.86,5.38,13.08,8.23,20.75,8.23,1.31,0,2.64-.08,3.97-.25,15.66-1.97,28.19-14.46,34.17-24.55,8.46-14.27,14.13-45.59,20.04-88.22,3.76-27.13,1.73-44.3-6.59-55.07Z"/>
      <path class="cls-3" d="m972.17,486.9s-.03-.04-.05-.06c-4.67-5.42-20.8-26.84-26.72-32.76l-10.86-1.62,11.23,17.86,5.83,12.5c-6.88,3.83-10.9,12.2-11.31,23.68-.95,26.37-33.75,62-93.4,67.3,10.64-35.09,17.54-67.96,21.6-90.56l.18-1.01h0c.94-5.29,1.82-10.48,2.6-15.42.12-.79.22-1.57.29-2.35.39-1.91.8-4.1,1.14-6.42,1.55-8.21,3.16-16.95,4.46-25.38,3.16-20.49,9.92-46.66,20.67-79.99,4.04-12.51,7.39-23.64,7.59-33.11.17-8.09-1.97-14.86-6.36-20.27-.04-.05-.06-.1-.1-.15-4.46-6.2-20.59-25.83-26.44-32.53l-9.5-2.47,5.76,15.69,3.87,6.51c-5.56-.37-11.02.57-16.02,2.87-14.57,6.7-24.41,23.76-29.26,50.71-1.96,10.87-3.53,20.55-4.92,29.09-4.42,27.13-7.09,43.51-14.07,50.5-2.54,2.54-4.68,2.92-5.43,2.56-1.15-.55-2.74-3.72-2.1-9.9.63-6.03,1.67-13.92,2.77-22.26,3.03-22.93,6.46-48.92,5.03-61.88-1.4-12.68-5.56-22.8-11.75-29.5,0,0,0,0,0,0-4.57-5-16.5-22.51-26.15-32.16l-10.66-.11,13.54,17.32,2.84,5.81c-.06,0-.11,0-.17,0-19.11,0-40.47,16.74-42.24,53.49-2.81,58.47-9.67,95.54-20.39,110.19-15.08,20.6-21.19,22.93-24.5,23.26-.72-1.81-2.01-7.05-.37-19.51,1.49-11.32,4.41-29.57,7.5-48.9,3.3-20.61,6.71-41.93,8.58-56.15.75-5.73,2.04-13.05,3.4-20.8,6.88-39.15,10.7-66.69.52-80.69-.08-.12-.16-.23-.24-.35-4.83-6.62-19.04-24.23-25.91-31.88-3.32-3.7-11.47-3.53-11.47-3.53l10.71,16.83,2.27,4.76c-3.94-.56-7.87-.41-11.69.51-8.6,2.08-20.48,8.98-28.23,29.98-8.14,22.05-10.98,45.46-13.27,64.27-.85,7.02-1.66,13.65-2.62,19.26-2.03,11.77-3.44,20.73-4.69,28.63-1.02,6.43-1.89,11.99-2.92,17.96l-.04.22c-7.53,43.68-13.17,80.32-10.44,103.69l-19.03-18.96,2.44,13.73v10.72c-6.02,2.84-11.96,8.12-17.75,15.83l-1.36,1.81c-7.87,10.5-17.67,23.57-24.95,23.57s-8.08-16.12-8.08-23.06c0-17.5,1.3-25.96,2.07-29.43.78-1.03,2.47-2.95,3.87-4.54,2.09-2.37,4.68-5.31,7.63-8.94,7.07-8.7,23.64-32.11,31.73-49.33,8.25-17.58,35.18-78.62,35.18-125.94,0-21.48-4.87-37.99-14.45-49.2-.12-.15-.24-.31-.37-.46-4.71-5.46-21.68-28.39-29.27-35.36-6.45-5.92-14.23-5.23-14.23-5.23l5.88,8.11,14.58,16.66,1.5,2.33c-4.94-1.37-10.24-1.99-15.84-1.79-24.18.85-56.65,29.9-69.21,82.08-10.07,41.87-20.05,108.19-26.65,152.08-1.2,7.97-2.27,15.12-3.2,21.11-1.11,7.18-2.04,13.96-2.93,20.51-3.62,26.49-6.48,47.41-17.28,60.77-7.95,9.83-11.73,12.03-12.91,12.52-.32-.21-.85-.63-1.63-1.41-.34-1.33-1.04-6.14,1.26-19.52,1.85-10.74,4.96-23.19,7.7-34.16,1.4-5.62,2.73-10.92,3.77-15.55,1.77-7.82,6.52-34.69-6.44-52.27-1.06-1.44-2.21-2.76-3.44-3.97,0,0,0,0,0,0-8.51-9.97-33.47-35.39-33.47-35.39l9.44,20.94,2.53,5.8c-10.13-.05-23.78,4.68-35.45,25.38-8.39,14.88-14.54,35.72-18.29,61.95-.56,3.91-1.2,7.98-1.82,11.92-2.67,16.93-5.51,35.01-3.69,51.65l-7.54-3.67-10.12-2.08c9.66,15.13,23.77,31.82,31.97,40.03.05.05.09.08.14.13,2.37,2.61,5.06,5.1,8.15,7.41,10.95,8.2,23.13,12.43,35.64,12.43,2.72,0,5.45-.2,8.2-.6,17.92-2.63,35.48-13.97,48.17-31.14,8.54-11.55,13.84-20.03,17.25-26.43,8.71,8.1,23.23,16.3,45.38,14,31.58-3.28,49.95-23.57,66.06-44.06l2.24-2.84c7.9-10.04,14.73-18.7,18.87-26.42,1.85-3.45,3.13-6.73,3.87-9.86,7.12,6.88,15.77,12.05,24.95,14.68,13.39,3.83,27.18,2.09,39.86-5.04,26.61-14.96,42.25-29.17,52.31-47.52,2.16-3.94,3.95-7.73,5.42-11.21,8.65,6.96,21.17,12.86,34.8,12.22,6.84-.32,13.43-2.01,19.73-5.05-4.41,25.13-12.04,50.07-24.71,80.79-.74,0-1.48,0-2.22,0-67.72,0-145.4,21.79-220.02,61.88-31.67,17.02-62.97,40.2-85.87,63.61-25.1,25.66-38.21,49.76-38.38,70.28l-.17-.18-18.47-6.78c7.84,11.7,15.92,21.05,27.18,33.68,0,0,0,0,0,0,10.55,14.25,30.73,23.94,60.31,28.91,12.3,2.07,25.03,3.09,38.05,3.09,41.07,0,85-10.16,127.04-29.71,53.97-25.11,99.93-63.14,129.42-107.09,10.44-15.56,20.27-33.91,29.27-54.64,31.39,1.1,62.14.27,92.5-12.45,36.22-15.17,59.88-48.4,63.29-88.89,1.83-21.79-1.18-37.87-8.51-46.16Zm-277.66,196.53c-25.7,19.89-62.16,36.84-100.03,46.48-31.07,7.91-52.27,8.08-60.48,6.23,10.94-22.56,60.26-67.27,183.72-98.01,8.39-2.09,17.16-3.57,26.74-4.48-13.69,17.98-30.42,34.66-49.95,49.78Z"/>
      <path class="cls-3" d="m356.92,320.3s-.05-.07-.07-.1c-6.66-9.22-23.26-29.97-31.42-38.14l-8.18-.1,14.02,18.94c-9.75-4.1-21.19-6.5-34.28-7.15-49.56-2.42-138.04,36.61-177.9,90.62-21.73,29.44-30.33,63.61-23.59,93.77.14.65.32,1.28.48,1.92l-5.71-4.32-8.9-1.37c7.74,12.01,26.54,35.83,37.4,45.75.03.02.05.04.08.06,5.39,5.19,11.53,9.7,18.36,13.39,39.62,21.41,68.1,5.19,75.89-.29,10.69-7.52,16.28-17.17,14.96-25.81-.71-4.66-2.5-8.94-5.26-12.77-.01-.02-.03-.04-.04-.06-.02-.03-.05-.07-.07-.1-.03-.04-.07-.09-.1-.13-4.04-5.51-22.77-30.2-28.96-35.48-4-3.41-11.5-1.03-11.5-1.03,0,0,3.83,3.46,7.11,7.78,2.33,3.06,3.6,7.05,3.65,11.58-.86-.2-1.73-.39-2.61-.57-10.64-2.14-16.38-9.45-16.38-15.25,0-18.66,13.56-37.5,40.31-55.99,14.25-9.85,29.11-17.9,41.85-22.67,14.6-5.46,22.06-4.92,24.17-3.74.91.51,1.11,3.15,1,5.26-1.7,31.87-22.77,155.84-32,200.87-1.16,5.68-2.26,11.65-3.33,17.42-8.39,45.57-15.95,75.53-43.47,76.76-6.32.29-11.22-1.25-14.95-4.68-4.87-4.47-6.72-11.35-6.82-13.81,0-.07,0-.12,0-.18,1.33-.89,4.89-2.01,7.1-2.7,6.32-1.99,14.19-4.46,19.16-11.43,5.45-7.64,8.63-21.48,2.76-33.8-1.02-2.13-2.79-4.33-4.92-7.35,0,0,0,0,0,0-6.42-8.29-16.13-21.35-25.8-31.77-3.63-3.92-8.44.7-4.85,4.28,2.42,2.42,4.7,8.12,6.21,15.31-1.87-.29-3.84-.51-5.94-.64-15.98-1-31.97,5.57-45.05,18.49-15.97,15.77-25.24,38.79-24.18,60.07.22,4.51.9,9.02,1.96,13.47l-14.86-6.12c8.23,13.12,22.27,29.75,35.46,44.11.17.19.34.36.5.52,1.01,1.06,2.04,2.11,3.11,3.13,12.45,11.88,34.55,26.05,69.13,26.05,26.9,0,50.81-7.65,71.07-22.74,16.43-12.23,30.1-29.06,40.65-50.01,14.45-28.71,24.47-96.71,31.09-141.7,1.59-10.79,2.96-20.1,4.05-26.43l1.44-8.33c6.67-38.45,20.54-118.46,20.54-143.42,0-15.2-4.25-28.68-12.34-39.35Z"/>
      <g id="dark_outline_1-2" data-name="dark outline 1">
        <path class="cls-3" d="m327.03,283.69c-12.56-13.35-31.42-20.73-56.05-21.94-49.56-2.42-138.04,36.61-177.9,90.62-21.73,29.44-30.33,63.61-23.59,93.77,5.39,24.12,20.2,43.8,41.71,55.42,39.62,21.41,68.1,5.19,75.89-.29,10.69-7.52,16.28-17.17,14.96-25.81-2.32-15.2-16.09-26.42-37.79-30.79-10.64-2.14-16.38-9.45-16.38-15.25,0-18.66,13.56-37.5,40.31-55.99,14.25-9.85,29.11-17.9,41.85-22.67,14.6-5.46,22.06-4.92,24.17-3.74.91.51,1.11,3.15,1,5.26-1.7,31.87-22.77,155.84-32,200.87-1.16,5.68-2.26,11.65-3.33,17.42-8.39,45.57-15.95,75.53-43.47,76.76-6.32.29-11.22-1.25-14.95-4.68-4.87-4.47-6.72-11.35-6.82-13.81,0-.07,0-.12,0-.18,1.33-.89,4.89-2.01,7.1-2.7,6.32-1.99,14.19-4.46,19.16-11.43,5.45-7.64,8.63-21.48,2.76-33.8-3.3-6.92-12.28-18.75-35.31-20.18-15.98-1-31.97,5.57-45.05,18.49-15.97,15.77-25.24,38.79-24.18,60.07,1,20.1,10.53,40.19,26.16,55.11,12.45,11.88,34.55,26.05,69.13,26.05,26.9,0,50.81-7.65,71.07-22.74,16.43-12.23,30.1-29.06,40.65-50.01,14.45-28.71,24.47-96.71,31.09-141.7,1.59-10.79,2.96-20.1,4.05-26.43l1.44-8.33c6.67-38.45,20.54-118.46,20.54-143.42,0-17.48-5.61-32.68-16.23-43.96Z"/>
        <path class="cls-3" d="m393.28,412.99c1.31,0,2.64-.08,3.97-.25,15.66-1.97,28.19-14.46,34.17-24.55,8.46-14.27,14.13-45.59,20.04-88.22,4-28.81,1.46-46.39-8.21-57-4.21-4.61-11.92-9.99-24.78-9.4-10.52.48-25.18,5.74-35.25,28.06-5.77,12.79-9.76,29.9-12.57,53.86-1.1,9.37-2.81,18.43-4.47,27.19-4.77,25.16-8.88,46.88,5.29,61.06,6.04,6.04,13.67,9.25,21.81,9.25Z"/>
        <path class="cls-3" d="m942.45,451.61c-4.99-3.35-11.08-3.77-16.3-1.11-7.23,3.68-11.44,12.21-11.87,24-.95,26.37-33.75,62-93.4,67.3,10.64-35.09,17.54-67.96,21.6-90.56l.18-1.01h0c.94-5.29,1.82-10.48,2.6-15.42.12-.79.22-1.57.29-2.35.39-1.91.8-4.1,1.14-6.42,1.55-8.21,3.16-16.95,4.46-25.38,3.16-20.49,9.92-46.66,20.67-79.99,4.04-12.51,7.39-23.64,7.59-33.11.26-12.29-4.79-21.56-15.01-27.56-11.12-6.52-23.43-7.54-33.78-2.78-14.57,6.7-24.41,23.76-29.26,50.71-1.96,10.87-3.53,20.55-4.92,29.09-4.42,27.13-7.09,43.51-14.07,50.5-2.54,2.54-4.68,2.92-5.43,2.56-1.15-.55-2.74-3.72-2.1-9.9.63-6.03,1.67-13.92,2.77-22.26,3.03-22.93,6.46-48.92,5.03-61.88-2.63-23.84-15.02-38.65-32.34-38.65-19.11,0-40.47,16.74-42.24,53.49-2.81,58.47-9.67,95.54-20.39,110.19-15.08,20.6-21.19,22.93-24.5,23.26-.72-1.81-2.01-7.05-.37-19.51,1.49-11.32,4.41-29.57,7.5-48.9,3.3-20.61,6.71-41.93,8.58-56.15.75-5.73,2.04-13.05,3.4-20.8,7.48-42.56,11.36-71.41-2.45-84.05-10.09-9.24-22.24-12.99-33.35-10.3-8.6,2.08-20.48,8.98-28.23,29.98-8.14,22.05-10.98,45.46-13.27,64.27-.85,7.02-1.66,13.65-2.62,19.26-2.03,11.77-3.44,20.73-4.69,28.63-1.02,6.43-1.89,11.99-2.92,17.96l-.04.22c-7.98,46.32-13.85,84.75-9.85,107.8-2.6-.85-5.04-1.1-7.08-1.07-9.46.15-18.83,6.3-27.84,18.29l-1.36,1.81c-7.87,10.5-17.67,23.57-24.95,23.57s-8.08-16.12-8.08-23.06c0-17.5,1.3-25.96,2.07-29.43.78-1.03,2.47-2.95,3.87-4.54,2.09-2.37,4.68-5.31,7.63-8.94,7.07-8.7,23.64-32.11,31.73-49.33,8.25-17.58,35.18-78.62,35.18-125.94,0-23.6-5.86-41.23-17.41-52.38-9.01-8.7-21.04-13.03-34.79-12.56-24.18.85-56.65,29.9-69.21,82.08-10.07,41.87-20.05,108.19-26.65,152.08-1.2,7.97-2.27,15.12-3.2,21.11-1.11,7.18-2.04,13.96-2.93,20.51-3.62,26.49-6.48,47.41-17.28,60.77-7.95,9.83-11.73,12.03-12.91,12.52-.32-.21-.85-.63-1.63-1.41-.34-1.33-1.04-6.14,1.26-19.52,1.85-10.74,4.96-23.19,7.7-34.16,1.4-5.62,2.73-10.92,3.77-15.55,1.77-7.82,6.52-34.69-6.44-52.27-5.51-7.47-13.32-11.8-22.59-12.53-10.29-.8-25.21,2.93-37.81,25.29-8.39,14.88-14.54,35.72-18.29,61.95-.56,3.91-1.2,7.98-1.82,11.92-5.24,33.24-11.18,70.93,18.92,93.48,10.95,8.2,23.13,12.43,35.64,12.43,2.72,0,5.45-.2,8.2-.6,17.92-2.63,35.48-13.97,48.17-31.14,8.54-11.55,13.84-20.03,17.25-26.43,8.71,8.1,23.23,16.3,45.38,14,31.58-3.28,49.95-23.57,66.06-44.06l2.24-2.84c7.9-10.04,14.73-18.7,18.87-26.42,1.85-3.45,3.13-6.73,3.87-9.86,7.12,6.88,15.77,12.05,24.95,14.68,13.39,3.83,27.18,2.09,39.86-5.04,26.61-14.96,42.25-29.17,52.31-47.52,2.16-3.94,3.95-7.73,5.42-11.21,8.65,6.96,21.17,12.86,34.8,12.22,6.84-.32,13.43-2.01,19.73-5.05-4.41,25.13-12.04,50.07-24.71,80.79-.74,0-1.48,0-2.22,0-67.72,0-145.4,21.79-220.02,61.88-31.67,17.02-62.97,40.2-85.87,63.61-28.37,29-41.44,56.01-37.79,78.11,4.09,24.81,27.06,40.89,68.27,47.81,12.3,2.07,25.03,3.09,38.05,3.09,41.07,0,85-10.16,127.04-29.71,53.97-25.11,99.93-63.14,129.42-107.09,10.44-15.56,20.27-33.91,29.27-54.64,31.39,1.1,62.14.27,92.5-12.45,36.22-15.17,59.88-48.4,63.29-88.89,2.12-25.17-2.23-42.73-12.23-49.45Zm-223.99,150.04c-13.69,17.98-30.42,34.66-49.95,49.78-25.7,19.89-62.16,36.84-100.03,46.48-31.07,7.91-52.27,8.08-60.48,6.23,10.94-22.56,60.26-67.27,183.72-98.01,8.39-2.09,17.16-3.57,26.74-4.48Z"/>
      </g>
    </g>
    <g id="white_lettering" data-name="white lettering">
      <path class="cls-2" d="m136.4,429.42c0-15.83,7.36-39.25,45.27-65.45s86.83-44.59,85.04-11.08-23.17,158.46-32.21,202.57-13.24,101.37-57.55,103.36c-26.44,1.19-33.47-21.86-33.78-29.52-.63-15.83,21.62-11.96,28.38-21.44s7.5-33.88-23.9-35.83-58.65,33.86-57.03,66.51,30.75,70.22,83.8,70.22,84.33-32.42,101.44-66.42,28.63-133.24,34.09-164.91,21.82-123.83,21.82-149.79-14.5-52.11-61.34-54.42-131.11,35.87-168.08,85.96-29.22,108.7,14.34,132.24,75.63-3.68,74.01-14.25-12.72-18.04-28.69-21.25-25.61-14.98-25.61-26.52Z"/>
      <path class="cls-2" d="m587.47,488.29c-7.26-9.06-17.34-6.05-28.33,8.58-10.99,14.63-21.92,29.97-35.5,29.97s-19.58-13.06-19.58-34.56,1.92-30.44,2.68-33.34c.76-2.9,5.95-7.57,13.47-16.82,7.52-9.25,23.1-31.76,30.24-46.97s34.09-75.92,34.09-121.05-22.99-54.05-40.3-53.45c-17.32.61-46.61,24.18-58.43,73.28-11.81,49.1-23.76,134.04-29.66,172.25-5.9,38.21-6.9,67.29-22.64,86.75-15.74,19.46-23.71,20.59-32.5,11.09s5.03-54.69,10.52-78.97c4.94-21.87,1.69-49.2-18.71-50.79-20.4-1.59-36.71,27.71-43.82,77.4-5.01,35.03-15.1,73.8,12.61,94.56,27.71,20.76,58.26,6.87,75.87-16.94,17.61-23.82,20.34-33.24,21.92-38.64,1.57-5.39,1.28-4.2,5.68,2.63,4.4,6.83,16.99,21.68,43.08,18.97,26.1-2.71,41.69-18.71,58.21-39.73,16.52-21.02,28.35-35.17,21.09-44.22Zm-73-104.43c1.2-11.28,3.93-34.92,8.2-60.67,5.04-30.39,8.7-45.27,14.62-51.19s11.61-2.4,10.48,18.66c-1.77,33.17-18.36,75.92-26.07,92.38-7.71,16.45-8.44,12.11-7.24.83Z"/>
      <path class="cls-2" d="m382.07,316.83c-4.07,34.71-16.21,65.03-2.47,78.78s33.49.96,41.93-13.28,14.34-53.63,18.54-83.94,1.83-54.38-21.08-53.33-32.25,31.84-36.93,71.78Z"/>
      <path class="cls-2" d="m925.78,474.91c-1.35,37.22-47.67,79.26-120.81,79.05,13.44-40.6,21.7-79.74,26.2-104.76h0s0,0,0,0c1.15-6.39,2.05-11.86,2.74-16.2.12-.73.19-1.43.22-2.1.46-2.23.89-4.47,1.22-6.76,1.52-8.03,3.15-16.88,4.44-25.24,4.06-26.35,13.12-57.06,21.09-81.77,7.97-24.71,11.57-39.09-2.29-47.23-13.87-8.14-37.1-8.87-45.9,40.05-8.8,48.92-9.87,73.37-22.19,85.69-12.32,12.32-29.4,5.35-27.09-16.67s9.58-65.59,7.81-81.68c-1.78-16.1-9.08-28.41-20.91-28.41s-29.23,10.83-30.75,42.55c-1.52,31.72-5.42,92.97-22.6,116.43-17.18,23.46-25.63,27.72-34.41,28.03-8.78.31-14.27-8.8-11.15-32.57,3.13-23.77,12.51-77.85,16.09-105.04,3.58-27.19,17.64-82.91,4.59-94.86-13.05-11.95-32.38-13.66-43.03,15.18s-11.72,60.43-15.35,81.5c-3.63,21.07-5.27,33-7.61,46.59-7.22,41.88-16.56,95.98-6.99,113.45s34.34,34.67,60.47,19.98,39.46-27.7,47.86-43.03c6.03-11,8.84-20.64,10.16-25.3s.96-4.13,5.48,3.13c4.52,7.27,18.63,17.93,34.13,17.21,15.5-.72,25.82-10.58,29.76-14.53,3.95-3.95,4.93-2.76,4.26,4.07-.38,3.88-.75,7.44-1.1,10.66-4.46,30-13.28,59.86-29.78,98.68-72.96-2.42-154.01,22.54-224.38,60.35-83.65,44.94-184.84,146.92-58.93,168.07,102.46,17.21,225.41-42.85,283.05-128.78,12.15-18.12,22.53-38.75,31.34-60.04,32.81,1.42,64.88,1.59,95.54-11.25,37.58-15.74,53.79-49.76,56.27-79.25,3.88-46.12-16.58-48.87-17.44-25.18Zm-250.24,185.6c-70.08,54.26-188.54,69.79-180.04,43.84,9.58-29.24,66.4-77.76,193.43-109.39,17.43-4.34,34.84-5.78,52.14-5.95-13.42,21.77-33.6,46.78-65.53,71.5Z"/>
    </g>
  </g>
</svg>