<?xml version="1.0" encoding="UTF-8"?>
<svg id="Layer_2" data-name="Layer 2" xmlns="http://www.w3.org/2000/svg" viewBox="0 0 1030.95 1030.95">
  <defs>
    <style>
      .cls-1 {
        fill: #99d8de;
      }

      .cls-1, .cls-2, .cls-3, .cls-4 {
        stroke-width: 0px;
      }

      .cls-2 {
        fill: #faf6e8;
      }

      .cls-3 {
        fill: #0c3444;
      }

      .cls-4 {
        fill: #44b5d8;
      }
    </style>
  </defs>
  <g id="circ">
    <circle class="cls-1" cx="515.48" cy="515.48" r="515.48"/>
    <path class="cls-4" d="M179.81,878.67s80.63,62.36,125.87,83.69c20.32,9.58,46.14,20.43,79.24,29.18-17.4-5.15-34.54-11.29-51.39-18.42-58.11-24.58-110.3-59.77-155.12-104.59-44.82-44.82-80.01-97.01-104.59-155.12-25.44-60.15-38.34-124.06-38.34-189.95s12.9-129.79,38.34-189.95c24.58-58.11,59.77-110.3,104.59-155.12,44.82-44.82,97.01-80.01,155.12-104.59,60.15-25.44,124.06-38.34,189.95-38.34s129.79,12.9,189.95,38.34c58.11,24.58,110.3,59.77,155.12,104.59,44.82,44.82,80.01,97.01,104.59,155.12,10.28,24.31,18.51,49.23,24.67,74.65-10.69-54.47-26.31-98.97-51.77-138.75-31.56-49.29-59.56-80.81-68.89-91.49-9.33-10.68-20.89-19.57-20.89-19.57l6.92-3.13c-89.29-82.41-208.61-132.76-339.7-132.76C246.78,22.48,22.48,246.78,22.48,523.48c0,130.78,50.11,249.85,132.18,339.07,6.84,3.78,15.12,9.04,25.15,16.13Z"/>
    <path class="cls-3" d="M515.48,27.48c65.89,0,129.79,12.9,189.95,38.34,58.11,24.58,110.3,59.77,155.12,104.59,44.82,44.82,80.01,97.01,104.59,155.12,25.44,60.15,38.34,124.06,38.34,189.95s-12.9,129.79-38.34,189.95c-24.58,58.11-59.77,110.3-104.59,155.12-44.82,44.82-97.01,80.01-155.12,104.59-60.15,25.44-124.06,38.34-189.95,38.34s-129.79-12.9-189.95-38.34c-58.11-24.58-110.3-59.77-155.12-104.59-44.82-44.82-80.01-97.01-104.59-155.12-25.44-60.15-38.34-124.06-38.34-189.95s12.9-129.79,38.34-189.95c24.58-58.11,59.77-110.3,104.59-155.12,44.82-44.82,97.01-80.01,155.12-104.59,60.15-25.44,124.06-38.34,189.95-38.34M515.48,14.48C238.78,14.48,14.48,238.78,14.48,515.48s224.31,501,501,501,501-224.31,501-501S792.17,14.48,515.48,14.48h0Z"/>
  </g>
  <g id="text">
    <g>
      <path class="cls-4" d="M300.5,168.19c-1.42,1.07-3.75,2.57-6.22-.71-.12-.16-.36-.47-.48-.63-2.43-3.23-.33-5.02,1.09-6.09,3.76-2.83,11.27-8.48,15.03-11.31,1.42-1.07,3.75-2.5,6.26.84.12.16.36.47.48.63,2.14,2.84.29,4.89-1.14,5.96-3.76,2.83-11.27,8.48-15.03,11.31Z"/>
      <path class="cls-4" d="M372.68,164.1c-1.64.85-2.96,1.25-3.95,1.21-.99-.04-1.7-.48-2.12-1.3l-29.39-56.8c-.42-.82-.37-1.65.17-2.48.53-.83,1.62-1.68,3.26-2.52l2.2-1.14c1.7-.88,3.03-1.29,3.99-1.23.96.06,1.65.5,2.08,1.32l29.39,56.8c.43.82.38,1.64-.12,2.46-.51.82-1.61,1.67-3.31,2.55l-2.2,1.14Z"/>
      <path class="cls-4" d="M411.83,146.82c-2.35.68-3.86-.16-4.53-2.5l-17.45-60.5c-.26-.89-.04-1.69.65-2.4.69-.71,1.92-1.33,3.69-1.84l2.38-.69c1.84-.53,3.22-.67,4.15-.43.93.25,1.52.81,1.78,1.7l15.39,53.36,22.35-6.45c1.71-.49,2.96.62,3.75,3.35l.71,2.47c.79,2.73.32,4.34-1.39,4.83l-31.48,9.08Z"/>
      <path class="cls-4" d="M474.19,133.42c-2.44.13-3.72-1.03-3.85-3.47l-3.24-62.88c-.05-.92.34-1.65,1.18-2.19.83-.54,2.17-.85,4.02-.95l2.47-.13c1.91-.1,3.29.08,4.14.53.85.45,1.3,1.14,1.35,2.06l2.85,55.47,23.23-1.2c1.78-.09,2.74,1.28,2.89,4.11l.13,2.57c.15,2.83-.67,4.3-2.45,4.39l-32.73,1.68Z"/>
      <path class="cls-4" d="M546.33,136.18c-1.82-.3-3.1-.77-3.83-1.39-.73-.62-1.02-1.39-.87-2.3l5.1-30.66-14.54-34.43c-.18-.5-.33-.94-.43-1.33-.1-.38-.13-.71-.09-.97.11-.65.63-1.07,1.56-1.25.93-.18,2.38-.11,4.33.22l3.13.52c1.56.26,2.71.6,3.44,1.02.73.42,1.28,1.13,1.65,2.13l11.3,28.58-4.98-.83,19.96-23.47c.6-.77,1.34-1.23,2.24-1.38.89-.15,2.12-.1,3.69.16l2.64.44c1.89.31,3.23.7,4.02,1.17.79.47,1.13,1.03,1.03,1.68-.04.26-.16.56-.35.9-.19.34-.49.71-.89,1.11l-24.86,28.18-5.05,30.37c-.15.91-.68,1.54-1.57,1.9-.9.35-2.29.37-4.17.06l-2.44-.41Z"/>
      <path class="cls-4" d="M598.45,119.41c-1.67-.62-4.44-1.53-2.75-5.57.08-.18.2-.56.28-.74,1.54-3.69,4.06-3.03,5.73-2.4,4.41,1.64,13.22,4.93,17.62,6.57,1.67.62,4.28,1.48,2.97,5.57-.06.19-.21.56-.28.74-1.32,3.72-4.28,3.03-5.95,2.4-4.41-1.64-13.22-4.93-17.62-6.57Z"/>
    </g>
    <path class="cls-4" d="M311.88,912.1c-1.62-.76-4.19-2.33-2.47-6.03l.34-.72c1.5-3.22,3.85-2.77,6.08-1.73,4.28,2,12.85,5.99,17.14,7.99,1.62.76,3.83,1.85,2.14,5.47l-.34.72c-1.75,3.74-4.13,3.04-5.76,2.28-4.28-2-12.85-6-17.14-7.99Z"/>
    <path class="cls-4" d="M371.32,966.54c-1.81-.42-3.08-.97-3.81-1.65-.73-.68-.99-1.47-.78-2.38l14.52-62.63c.21-.9.79-1.5,1.74-1.79.95-.29,2.33-.23,4.14.19l4.46,1.03c1.49.34,2.68.83,3.6,1.44.91.62,1.52,1.44,1.83,2.47l8.71,32.05c.32.96.61,1.98.87,3.06.26,1.08.42,2.07.49,2.97.5-.7,1.14-1.54,1.91-2.52.77-.98,1.43-1.78,1.99-2.4l21.98-24.74c.81-.83,1.71-1.34,2.7-1.52.99-.18,2.2-.1,3.63.23l4.36,1.01c1.87.44,3.16.99,3.86,1.66.69.67.94,1.46.73,2.37l-14.52,62.63c-.21.91-.78,1.51-1.69,1.8-.92.3-2.32.23-4.19-.21l-1.74-.4c-1.81-.42-3.06-.97-3.76-1.64-.7-.67-.94-1.46-.73-2.37l9.1-39.27c.19-.84.39-1.66.57-2.47.19-.81.38-1.63.57-2.47l-.37-.19c-.49.64-1,1.23-1.54,1.79-.54.56-1.04,1.12-1.52,1.69l-18.04,20.54c-.66.8-1.45,1.27-2.37,1.39-.92.13-2.12.02-3.6-.32l-1.55-.36c-1.49-.34-2.6-.77-3.33-1.28-.73-.51-1.25-1.28-1.56-2.3l-7.22-26.6c-.17-.72-.38-1.45-.62-2.19-.24-.74-.44-1.5-.59-2.28h-.41c-.18.78-.37,1.59-.56,2.43-.2.84-.39,1.68-.58,2.52l-9.15,39.46c-.21.91-.76,1.51-1.65,1.82-.89.3-2.27.24-4.14-.2l-1.75-.4Z"/>
    <path class="cls-4" d="M473.32,988.73c-1.86-.07-3.22-.31-4.11-.71-.88-.4-1.31-.9-1.29-1.49.01-.26.07-.53.18-.79s.2-.56.28-.89l25.02-63.55c.22-.66.77-1.12,1.65-1.38s2.04-.37,3.5-.31l4.37.17c1.52.06,2.68.26,3.46.59.78.33,1.29.83,1.53,1.5l19.93,65.33c.12.34.19.64.22.91.02.27.03.53.02.8-.02.6-.42,1.06-1.2,1.4-.78.33-2,.47-3.65.4l-3.08-.12c-1.33-.05-2.43-.23-3.32-.53-.88-.3-1.45-.82-1.68-1.56l-13.77-47.26c-.23-1-.45-2.04-.68-3.11-.22-1.07-.41-2.11-.57-3.11h-.3c-.24.98-.49,2-.77,3.05-.27,1.05-.6,2.07-.97,3.05l-17.55,46.02c-.29.65-.83,1.11-1.6,1.38-.77.27-1.72.38-2.85.34l-2.78-.11ZM481.21,973.11l.41-10.44,34.61,1.37-.41,10.44-34.61-1.37Z"/>
    <path class="cls-4" d="M574.86,987.64c-1.82.36-3.21.37-4.15.05-.94-.32-1.5-.94-1.68-1.85l-12.32-63.1c-.18-.91.11-1.69.86-2.35.75-.65,2.04-1.16,3.86-1.51l2.44-.48c1.89-.37,3.29-.39,4.2-.06.91.33,1.45.95,1.63,1.86l5.3,27.15.39-.08,13.46-31.32c.47-1.04,1.13-1.81,1.98-2.31.85-.5,2.28-.95,4.3-1.35l2.05-.4c1.89-.37,3.23-.49,4.03-.38.8.11,1.26.5,1.39,1.15.05.26.07.6.04,1.01-.02.41-.21.92-.56,1.53l-16.57,37.71-1.39-7.13,32.79,29.29c.51.51.86.95,1.07,1.31.21.37.34.68.39.94.14.72-.19,1.27-.99,1.66-.8.39-2.15.77-4.04,1.14l-2.44.48c-1.95.38-3.44.49-4.45.31-1.01-.17-1.89-.59-2.63-1.26l-26.79-23.97-.39.08,5.38,27.55c.18.91-.09,1.69-.81,2.34-.72.65-2.02,1.15-3.91,1.52l-2.44.48Z"/>
    <path class="cls-4" d="M660.51,966.54c-2.19.79-3.69.03-4.53-2.28l-21.17-58.59c-.83-2.31-.16-3.86,2.02-4.65l33.14-11.97c1.62-.59,2.92.46,3.89,3.15l.88,2.43c.97,2.68.64,4.32-.98,4.9l-23.96,8.66,5.88,16.29,21.44-7.74c1.56-.56,2.82.5,3.79,3.18l.88,2.43c.97,2.68.67,4.31-.89,4.87l-21.43,7.74,6.43,17.78,24.05-8.69c1.62-.59,2.92.46,3.89,3.15l.88,2.43c.97,2.68.64,4.32-.98,4.9l-33.23,12.01Z"/>
    <path class="cls-4" d="M756.5,926.36c-2.6,1.73-5.1,3.1-7.5,4.1-2.4,1-4.6,1.69-6.58,2.05-1.99.37-3.65.56-5,.58-.96,0-1.79-.06-2.51-.18-.72-.12-1.28-.48-1.68-1.09-.33-.5-.65-1.16-.96-1.99-.31-.83-.57-1.69-.77-2.6-.2-.9-.28-1.71-.23-2.42.05-.71.29-1.21.73-1.5.5-.33,1.69-.63,3.59-.9,1.9-.27,4.08-.72,6.56-1.38,2.48-.65,4.9-1.77,7.27-3.35,1.88-1.25,3.26-2.53,4.14-3.84s1.29-2.69,1.23-4.17c-.06-1.47-.61-2.98-1.64-4.53-.96-1.44-2.14-2.4-3.55-2.9-1.41-.5-2.95-.72-4.64-.68-1.69.05-3.48.28-5.38.72-1.91.43-3.87.8-5.89,1.12-1.99.37-4,.61-6.03.73-2.03.12-4.05-.03-6.04-.46-2-.42-3.95-1.32-5.85-2.68-1.9-1.36-3.7-3.31-5.39-5.85-1.8-2.7-2.86-5.43-3.17-8.17-.31-2.74-.02-5.39.87-7.94.89-2.55,2.27-4.92,4.12-7.11,1.85-2.19,4.02-4.11,6.5-5.77,1.66-1.1,3.38-2.05,5.16-2.84,1.79-.79,3.5-1.41,5.15-1.87,1.65-.46,3.11-.68,4.4-.66.81.02,1.53.12,2.17.29.63.17,1.08.46,1.34.84.3.44.61,1.09.94,1.95.33.85.6,1.73.8,2.63.2.9.28,1.71.23,2.42-.05.71-.29,1.21-.73,1.5-.61.41-1.6.73-2.99.98-1.39.25-2.98.65-4.76,1.2-1.78.55-3.62,1.45-5.49,2.7-1.77,1.18-3.09,2.42-3.98,3.73-.89,1.3-1.32,2.66-1.31,4.04,0,1.39.49,2.8,1.45,4.24,1.07,1.6,2.4,2.61,3.99,3.03,1.59.41,3.37.45,5.33.1,1.96-.35,4.03-.73,6.22-1.16,2.25-.46,4.56-.84,6.94-1.16,2.38-.31,4.75-.31,7.11-.01s4.63,1.12,6.83,2.44c2.2,1.33,4.25,3.43,6.17,6.3,1.99,2.98,3.22,5.89,3.71,8.71.49,2.83.31,5.52-.54,8.07-.85,2.56-2.16,4.9-3.92,7.04-1.77,2.13-3.89,4.03-6.38,5.68Z"/>
    <path class="cls-4" d="M905.52,741.43c-.51-5.44-3.27-8.11-7.31-5.8-2.73,1.56-2.56,4.31-1.62,7.35,1.05,3.42.21,6.51.01,8.77-.68,7.52-7.31,16.4-16.64,24.35-2.55,2.12-6.41,5.01-11.88,7.39-1.87.75-3.78,1.39-5.74,1.86-.87.21-1.75.38-2.64.52-1.57.17-3.16.17-4.73.01-3.02-.56-5.99-.95-7.91,2.06-.89,1.57-.85,3.44-.91,5.2-.05,2.01-.18,4.01-.41,6-.01.1-.03.21-.04.31,0,.04,0,.07-.01.1-1.62,12.32-6.31,22.19-11.07,27.97-6.83,8.31-22.55,22.33-29.4,27.64-.22.17-.84.66-1.07.83-1.09.85-3.21,2.37-4.75,3.47-.99.71-2.62,2.01-4.17,2.99-2.33,1.48-3.85,2.62-5.12,3.43-2.01,1.28-2.39,1.48-3.98,2.61-.34.24-.64.46-.88.63-.26.19-.78.67-.95.89-.32.4-.43.57-.68,1.02-.66,1.15-.42,3.27.67,4.58,1.02,1.13,2.1,1.7,3.33,1.95.76.15,1.56.18,2.29-.11.22-.09.46-.16.66-.26.46-.23,1.19-.59,1.75-.97,2.54-1.75,4.51-3.49,6.37-4.96.25-.2.75-.59,1.01-.79,3.28-2.55,8.29-6.36,12.91-10.04,9.97-7.95,17.7-14.57,26.14-24.15,8.95-10.18,13.86-21.54,15.53-35.08.35-2.15.51-4.32.62-6.5,9.47.83,22.4-4.37,31.71-12.77,7.61-6.95,14.46-15.41,17.55-25.37,1.49-5.3,1.89-9.67,1.37-15.16Z"/>
    <g>
      <path class="cls-3" d="M295.29,162.98c-1.42,1.07-3.75,2.57-6.22-.71-.12-.16-.36-.47-.48-.63-2.43-3.23-.33-5.02,1.09-6.09,3.76-2.83,11.27-8.48,15.03-11.31,1.42-1.07,3.75-2.5,6.26.84.12.16.36.47.48.63,2.14,2.84.29,4.89-1.14,5.96-3.76,2.83-11.27,8.48-15.03,11.31Z"/>
      <path class="cls-3" d="M367.47,158.89c-1.64.85-2.96,1.25-3.95,1.21-.99-.04-1.7-.48-2.12-1.3l-29.39-56.8c-.42-.82-.37-1.65.17-2.48.53-.83,1.62-1.68,3.26-2.52l2.2-1.14c1.7-.88,3.03-1.29,3.99-1.23.96.06,1.65.5,2.08,1.32l29.39,56.8c.43.82.38,1.64-.12,2.46-.51.82-1.61,1.67-3.31,2.55l-2.2,1.14Z"/>
      <path class="cls-3" d="M406.62,141.61c-2.35.68-3.86-.16-4.53-2.5l-17.45-60.5c-.26-.89-.04-1.69.65-2.4.69-.71,1.92-1.33,3.69-1.84l2.38-.69c1.84-.53,3.22-.67,4.15-.43.93.25,1.52.81,1.78,1.7l15.39,53.36,22.35-6.45c1.71-.49,2.96.62,3.75,3.35l.71,2.47c.79,2.73.32,4.34-1.39,4.83l-31.48,9.08Z"/>
      <path class="cls-3" d="M468.98,128.21c-2.44.13-3.72-1.03-3.85-3.47l-3.24-62.88c-.05-.92.34-1.65,1.18-2.19.83-.54,2.17-.85,4.02-.95l2.47-.13c1.91-.1,3.29.08,4.14.53.85.45,1.3,1.14,1.35,2.06l2.85,55.47,23.23-1.2c1.78-.09,2.74,1.28,2.89,4.11l.13,2.57c.15,2.83-.67,4.3-2.45,4.39l-32.73,1.68Z"/>
      <path class="cls-3" d="M541.12,130.97c-1.82-.3-3.1-.77-3.83-1.39-.73-.62-1.02-1.39-.87-2.3l5.1-30.66-14.54-34.43c-.18-.5-.33-.94-.43-1.33-.1-.38-.13-.71-.09-.97.11-.65.63-1.07,1.56-1.25.93-.18,2.38-.11,4.33.22l3.13.52c1.56.26,2.71.6,3.44,1.02.73.42,1.28,1.13,1.65,2.13l11.3,28.58-4.98-.83,19.96-23.47c.6-.77,1.34-1.23,2.24-1.38.89-.15,2.12-.1,3.69.16l2.64.44c1.89.31,3.23.7,4.02,1.17.79.47,1.13,1.03,1.03,1.68-.04.26-.16.56-.35.9-.19.34-.49.71-.89,1.11l-24.86,28.18-5.05,30.37c-.15.91-.68,1.54-1.57,1.9-.9.35-2.29.37-4.17.06l-2.44-.41Z"/>
      <path class="cls-3" d="M593.24,114.2c-1.67-.62-4.44-1.53-2.75-5.57.08-.18.2-.56.28-.74,1.54-3.69,4.06-3.03,5.73-2.4,4.41,1.64,13.22,4.93,17.62,6.57,1.67.62,4.28,1.48,2.97,5.57-.06.19-.21.56-.28.74-1.32,3.72-4.28,3.03-5.95,2.4-4.41-1.64-13.22-4.93-17.62-6.57Z"/>
    </g>
    <path class="cls-3" d="M305.8,909.27c-1.62-.76-4.19-2.33-2.47-6.03l.34-.72c1.5-3.22,3.85-2.77,6.08-1.73,4.28,2,12.85,5.99,17.14,7.99,1.62.76,3.83,1.85,2.14,5.47l-.34.72c-1.75,3.74-4.13,3.04-5.76,2.28-4.28-2-12.85-6-17.14-7.99Z"/>
    <path class="cls-3" d="M365.35,963.48c-1.81-.42-3.08-.97-3.81-1.65-.73-.68-.99-1.47-.78-2.38l14.52-62.63c.21-.9.79-1.5,1.74-1.79.95-.29,2.33-.23,4.14.19l4.46,1.03c1.49.34,2.68.83,3.6,1.44.91.62,1.52,1.44,1.83,2.47l8.71,32.05c.32.96.61,1.98.87,3.06.26,1.08.42,2.07.49,2.97.5-.7,1.14-1.54,1.91-2.52.77-.98,1.43-1.78,1.99-2.4l21.98-24.74c.81-.83,1.71-1.34,2.7-1.52.99-.18,2.2-.1,3.63.23l4.36,1.01c1.87.44,3.16.99,3.86,1.66.69.67.94,1.46.73,2.37l-14.52,62.63c-.21.91-.78,1.51-1.69,1.8-.92.3-2.32.23-4.19-.21l-1.74-.4c-1.81-.42-3.06-.97-3.76-1.64-.7-.67-.94-1.46-.73-2.37l9.1-39.27c.19-.84.39-1.66.57-2.47.19-.81.38-1.63.57-2.47l-.37-.19c-.49.64-1,1.23-1.54,1.79-.54.56-1.04,1.12-1.52,1.69l-18.04,20.54c-.66.8-1.45,1.27-2.37,1.39-.92.13-2.12.02-3.6-.32l-1.55-.36c-1.49-.34-2.6-.77-3.33-1.28-.73-.51-1.25-1.28-1.56-2.3l-7.22-26.6c-.17-.72-.38-1.45-.62-2.19-.24-.74-.44-1.5-.59-2.28h-.41c-.18.78-.37,1.59-.56,2.43-.2.84-.39,1.68-.58,2.52l-9.15,39.46c-.21.91-.76,1.51-1.65,1.82-.89.3-2.27.24-4.14-.2l-1.75-.4Z"/>
    <path class="cls-3" d="M467.71,985.07c-1.86-.07-3.22-.31-4.11-.71-.88-.4-1.31-.9-1.29-1.49.01-.26.07-.53.18-.79s.2-.56.28-.89l25.02-63.55c.22-.66.77-1.12,1.65-1.38s2.04-.37,3.5-.31l4.37.17c1.52.06,2.68.26,3.46.59.78.33,1.29.83,1.53,1.5l19.93,65.33c.12.34.19.64.22.91.02.27.03.53.02.8-.02.6-.42,1.06-1.2,1.4-.78.33-2,.47-3.65.4l-3.08-.12c-1.33-.05-2.43-.23-3.32-.53-.88-.3-1.45-.82-1.68-1.56l-13.77-47.26c-.23-1-.45-2.04-.68-3.11-.22-1.07-.41-2.11-.57-3.11h-.3c-.24.98-.49,2-.77,3.05-.27,1.05-.6,2.07-.97,3.05l-17.55,46.02c-.29.65-.83,1.11-1.6,1.38-.77.27-1.72.38-2.85.34l-2.78-.11ZM475.6,969.44l.41-10.44,34.61,1.37-.41,10.44-34.61-1.37Z"/>
    <path class="cls-3" d="M569.31,983.89c-1.82.36-3.21.37-4.15.05-.94-.32-1.5-.94-1.68-1.85l-12.32-63.1c-.18-.91.11-1.69.86-2.35.75-.65,2.04-1.16,3.86-1.51l2.44-.48c1.89-.37,3.29-.39,4.2-.06.91.33,1.45.95,1.63,1.86l5.3,27.15.39-.08,13.46-31.32c.47-1.04,1.13-1.81,1.98-2.31.85-.5,2.28-.95,4.3-1.35l2.05-.4c1.89-.37,3.23-.49,4.03-.38.8.11,1.26.5,1.39,1.15.05.26.07.6.04,1.01-.02.41-.21.92-.56,1.53l-16.57,37.71-1.39-7.13,32.79,29.29c.51.51.86.95,1.07,1.31.21.37.34.68.39.94.14.72-.19,1.27-.99,1.66-.8.39-2.15.77-4.04,1.14l-2.44.48c-1.95.38-3.44.49-4.45.31-1.01-.17-1.89-.59-2.63-1.26l-26.79-23.97-.39.08,5.38,27.55c.18.91-.09,1.69-.81,2.34-.72.65-2.02,1.15-3.91,1.52l-2.44.48Z"/>
    <path class="cls-3" d="M655.3,962.32c-2.19.79-3.69.03-4.53-2.28l-21.17-58.59c-.83-2.31-.16-3.86,2.02-4.65l33.14-11.97c1.62-.59,2.92.46,3.89,3.15l.88,2.43c.97,2.68.64,4.32-.98,4.9l-23.96,8.66,5.88,16.29,21.44-7.74c1.56-.56,2.82.5,3.79,3.18l.88,2.43c.97,2.68.67,4.31-.89,4.87l-21.43,7.74,6.43,17.78,24.05-8.69c1.62-.59,2.92.46,3.89,3.15l.88,2.43c.97,2.68.64,4.32-.98,4.9l-33.23,12.01Z"/>
    <path class="cls-3" d="M751.25,922.19c-2.6,1.73-5.1,3.1-7.5,4.1-2.4,1-4.6,1.69-6.58,2.05-1.99.37-3.65.56-5,.58-.96,0-1.79-.06-2.51-.18-.72-.12-1.28-.48-1.68-1.09-.33-.5-.65-1.16-.96-1.99-.31-.83-.57-1.69-.77-2.6-.2-.9-.28-1.71-.23-2.42.05-.71.29-1.21.73-1.5.5-.33,1.69-.63,3.59-.9,1.9-.27,4.08-.72,6.56-1.38,2.48-.65,4.9-1.77,7.27-3.35,1.88-1.25,3.26-2.53,4.14-3.84s1.29-2.69,1.23-4.17c-.06-1.47-.61-2.98-1.64-4.53-.96-1.44-2.14-2.4-3.55-2.9-1.41-.5-2.95-.72-4.64-.68-1.69.05-3.48.28-5.38.72-1.91.43-3.87.8-5.89,1.12-1.99.37-4,.61-6.03.73-2.03.12-4.05-.03-6.04-.46-2-.42-3.95-1.32-5.85-2.68-1.9-1.36-3.7-3.31-5.39-5.85-1.8-2.7-2.86-5.43-3.17-8.17-.31-2.74-.02-5.39.87-7.94.89-2.55,2.27-4.92,4.12-7.11,1.85-2.19,4.02-4.11,6.5-5.77,1.66-1.1,3.38-2.05,5.16-2.84,1.79-.79,3.5-1.41,5.15-1.87,1.65-.46,3.11-.68,4.4-.66.81.02,1.53.12,2.17.29.63.17,1.08.46,1.34.84.3.44.61,1.09.94,1.95.33.85.6,1.73.8,2.63.2.9.28,1.71.23,2.42-.05.71-.29,1.21-.73,1.5-.61.41-1.6.73-2.99.98-1.39.25-2.98.65-4.76,1.2-1.78.55-3.62,1.45-5.49,2.7-1.77,1.18-3.09,2.42-3.98,3.73-.89,1.3-1.32,2.66-1.31,4.04,0,1.39.49,2.8,1.45,4.24,1.07,1.6,2.4,2.61,3.99,3.03,1.59.41,3.37.45,5.33.1,1.96-.35,4.03-.73,6.22-1.16,2.25-.46,4.56-.84,6.94-1.16,2.38-.31,4.75-.31,7.11-.01s4.63,1.12,6.83,2.44c2.2,1.33,4.25,3.43,6.17,6.3,1.99,2.98,3.22,5.89,3.71,8.71.49,2.83.31,5.52-.54,8.07-.85,2.56-2.16,4.9-3.92,7.04-1.77,2.13-3.89,4.03-6.38,5.68Z"/>
    <path class="cls-3" d="M900.78,736.69c-.51-5.44-3.27-8.11-7.31-5.8-2.73,1.56-2.56,4.31-1.62,7.35,1.05,3.42.21,6.51.01,8.77-.68,7.52-7.31,16.4-16.64,24.35-2.55,2.12-6.41,5.01-11.88,7.39-1.87.75-3.78,1.39-5.74,1.86-.87.21-1.75.38-2.64.52-1.57.17-3.16.17-4.73.01-3.02-.56-5.99-.95-7.91,2.06-.89,1.57-.85,3.44-.91,5.2-.05,2.01-.18,4.01-.41,6-.01.1-.03.21-.04.31,0,.04,0,.07-.01.1-1.62,12.32-6.31,22.19-11.07,27.97-6.83,8.31-22.55,22.33-29.4,27.64-.22.17-.84.66-1.07.83-1.09.85-3.21,2.37-4.75,3.47-.99.71-2.62,2.01-4.17,2.99-2.33,1.48-3.85,2.62-5.12,3.43-2.01,1.28-2.39,1.48-3.98,2.61-.34.24-.64.46-.88.63-.26.19-.78.67-.95.89-.32.4-.43.57-.68,1.02-.66,1.15-.42,3.27.67,4.58,1.02,1.13,2.1,1.7,3.33,1.95.76.15,1.56.18,2.29-.11.22-.09.46-.16.66-.26.46-.23,1.19-.59,1.75-.97,2.54-1.75,4.51-3.49,6.37-4.96.25-.2.75-.59,1.01-.79,3.28-2.55,8.29-6.36,12.91-10.04,9.97-7.95,17.7-14.57,26.14-24.15,8.95-10.18,13.86-21.54,15.53-35.08.35-2.15.51-4.32.62-6.5,9.47.83,22.4-4.37,31.71-12.77,7.61-6.95,14.46-15.41,17.55-25.37,1.49-5.3,1.89-9.67,1.37-15.16Z"/>
  </g>
  <g id="illy">
    <g>
      <path class="cls-4" d="M319.75,270.94s0,0-.01-.01c-10.69-12.45-24.56-29.12-38.11-37.63l-5.38,6.56s10.67,11.29,15.67,20.92c-1.06.08-2.15.19-3.27.35-11.83,1.74-27.8,9.34-36.65,35.7-5.07,15.1-7.64,34.88-8.1,62.27-.18,10.7-1.09,21.14-1.98,31.22-1.1,12.61-2.14,24.48-1.51,35.04l-21.37-2.39c7.19,7.72,22.91,23.39,31.67,31.78,1.23,1.39,2.59,2.71,4.1,3.94.19.15.38.3.57.45.02.02.04.04.06.05.24.21.46.38.68.53,7.23,5.42,15.71,7.82,24.38,6.95,1.48-.15,2.97-.39,4.46-.73,17.46-4,30.22-19.52,35.83-31.6,7.94-17.08,10.8-53.11,12.66-101.94,1.18-31.08-3.05-50.24-13.68-61.47Z"/>
      <path class="cls-4" d="M909.84,451.45s-.04-.04-.07-.07c-5.88-5.59-26.53-27.97-33.89-33.99l-12.45-.6,14.71,18.91,8,13.46c-7.34,5.11-10.93,15.02-10.1,28.04,1.91,29.89-31.11,73.87-97.9,86.6,8.05-40.84,12.12-78.76,14.16-104.75l.09-1.17h0c.47-6.08.87-12.04,1.19-17.72.05-.9.07-1.8.06-2.68.22-2.2.44-4.73.56-7.38.82-9.45,1.65-19.51,2.16-29.17,1.25-23.51,5.92-53.83,14.3-92.71,3.14-14.59,5.68-27.55,4.83-38.27-.72-9.16-3.91-16.57-9.48-22.18-.05-.05-.08-.1-.13-.16-5.74-6.49-26.19-26.85-33.56-33.75l-11.01-1.71,8.29,17.07,5.11,6.92c-6.32.22-12.38,1.9-17.77,5.06-15.7,9.22-24.89,29.61-27.32,60.6-.98,12.5-1.67,23.62-2.27,33.42-1.92,31.16-3.09,49.96-10.18,58.64-2.58,3.15-4.95,3.83-5.84,3.5-1.37-.49-3.52-3.9-3.49-10.94.03-6.89.31-15.91.61-25.46.82-26.25,1.76-56-1.33-70.48-3.02-14.16-8.86-25.13-16.61-31.99,0,0,0,0,0,0-5.73-5.13-21.19-23.56-33.18-33.37l-12.05,1.09,17.26,18.03,3.87,6.24c-.06,0-.13,0-.19.01-21.58,2.16-43.83,23.49-41.66,65.21,3.44,66.37-.11,109.03-10.57,126.8-14.71,24.98-21.35,28.3-25.05,29.06-1.02-1.96-3.07-7.74-2.62-22,.4-12.96,1.64-33.91,2.94-56.09,1.39-23.66,2.83-48.13,3.34-64.4.2-6.56.83-14.97,1.49-23.88,3.35-45.01,4.54-76.55-8.54-91.21-.1-.12-.2-.24-.31-.37-6.2-6.93-24.25-25.22-32.87-33.08-4.17-3.8-13.36-2.69-13.36-2.69l14.01,17.8,3.1,5.12c-4.51-.18-8.94.43-13.15,1.9-9.48,3.33-22.12,12.46-28.5,37.06-6.7,25.83-7.26,52.6-7.72,74.11-.17,8.03-.33,15.61-.78,22.05-.96,13.53-1.54,23.8-2.06,32.87-.42,7.38-.78,13.76-1.27,20.62l-.02.26c-3.56,50.2-5.79,92.24-.06,118.32l-23.65-19.26,4.31,15.24,1.21,12.11c-6.48,3.89-12.59,10.53-18.26,19.89l-1.33,2.2c-7.71,12.75-17.3,28.63-25.52,29.45s-10.95-17.3-11.74-25.13c-1.98-19.77-1.47-29.47-1-33.48.77-1.26,2.46-3.61,3.86-5.56,2.09-2.91,4.69-6.53,7.61-10.96,7.01-10.63,23.08-38.95,30.26-59.33,7.33-20.8,30.85-92.8,25.49-146.26-2.43-24.27-9.8-42.37-21.89-53.95-.16-.16-.3-.32-.46-.47-5.94-5.64-27.7-29.62-37.07-36.64-7.95-5.95-16.67-4.3-16.67-4.3l7.56,8.5,18.36,17.18,1.96,2.47c-5.73-.99-11.8-1.08-18.1-.23-27.22,3.69-60.62,40.19-68.89,100.56-6.64,48.44-10.4,124.5-12.89,174.82-.45,9.14-.86,17.33-1.22,24.21-.44,8.24-.72,16-.99,23.5-1.09,30.33-1.95,54.29-12.65,70.6-7.87,12.01-11.89,14.92-13.17,15.6-.38-.2-1.04-.61-2.01-1.41-.53-1.46-1.88-6.82-.79-22.19.87-12.35,2.97-26.75,4.83-39.47.95-6.5,1.84-12.64,2.5-17.99,1.11-9.03,3.44-39.93-13.19-58.32-1.36-1.51-2.81-2.87-4.34-4.09,0,0,0,0,0,0-10.74-10.31-41.81-36.19-41.81-36.19l13.04,22.59,3.52,6.27c-11.45,1.09-26.34,7.98-37.18,32.69-7.79,17.76-12.38,42-13.65,72.05-.19,4.48-.45,9.15-.71,13.67-1.1,19.43-2.26,40.17,1.68,58.77l-8.93-3.29-11.67-1.2c12.63,16,30.45,33.26,40.65,41.6.06.05.11.08.17.13,2.97,2.69,6.3,5.19,10.05,7.45,13.3,8.03,27.54,11.42,41.67,10,3.07-.31,6.14-.84,9.19-1.61,19.95-5,38.5-19.8,50.9-40.63,8.34-14.02,13.37-24.19,16.49-31.81,10.75,8.17,28.09,15.78,52.85,10.68,35.31-7.28,53.76-32.28,69.64-57.26l2.2-3.46c7.79-12.23,14.52-22.8,18.32-31.98,1.7-4.1,2.77-7.96,3.26-11.58,8.82,6.97,19.18,11.83,29.84,13.76,15.57,2.81,30.94-.72,44.46-10.21,28.36-19.91,44.43-37.74,53.71-59.61,1.99-4.69,3.58-9.18,4.85-13.28,10.56,6.88,25.38,12.13,40.7,9.87,7.69-1.14,14.95-3.79,21.72-7.94-2.14,28.89-7.94,57.93-18.77,94.07-.84.08-1.67.16-2.51.24-76.51,7.67-161.8,41.07-241.56,94.81-33.86,22.81-66.59,52.55-89.81,81.59-25.45,31.83-37.54,60.54-35.4,83.74l-.21-.18-21.63-5.57c10.18,12.33,20.37,21.98,34.52,34.97,0,0,0,0,.01,0,13.53,14.9,37.42,23.56,71.4,25.83,14.13.94,28.62.65,43.33-.82,46.4-4.65,94.88-21.1,140.15-47.95,58.13-34.47,105.75-82.64,134.09-135.63,10.03-18.76,19.06-40.61,26.89-65.05,35.59-2.31,70.23-6.73,103.09-24.54,39.2-21.24,62.17-61.46,61.43-107.58-.4-24.82-5.62-42.65-14.84-51.18ZM618.4,704.9c-26.78,25.38-66.05,48.65-107.75,63.83-34.21,12.46-58.14,15.05-67.62,13.88,9.81-26.73,60.46-82.81,196.46-131.51,9.25-3.31,18.98-5.97,29.7-8.09-13.43,21.86-30.45,42.6-50.8,61.89Z"/>
      <g id="dark_outline_1" data-name="dark outline 1">
        <path class="cls-4" d="M247.5,433.47c1.48-.15,2.97-.39,4.46-.73,17.46-4,30.22-19.52,35.83-31.6,7.94-17.08,10.8-53.11,12.66-101.94,1.25-33-3.6-52.57-15.73-63.46-5.28-4.74-14.6-9.94-29.06-7.81-11.83,1.74-27.8,9.34-36.65,35.7-5.07,15.1-7.64,34.88-8.1,62.27-.18,10.7-1.09,21.14-1.98,31.22-2.54,28.96-4.73,53.97,12.89,68.38,7.51,6.14,16.49,8.9,25.69,7.98Z"/>
        <path class="cls-4" d="M872.28,414.95c-6.02-3.22-12.95-3-18.54.59-7.75,4.98-11.54,15.09-10.69,28.45,1.91,29.89-31.11,73.87-97.9,86.6,8.05-40.84,12.12-78.76,14.16-104.75l.09-1.17h0c.47-6.08.87-12.04,1.19-17.72.05-.9.07-1.8.06-2.68.22-2.2.44-4.73.56-7.38.82-9.45,1.65-19.51,2.16-29.17,1.25-23.51,5.92-53.83,14.3-92.71,3.14-14.59,5.68-27.55,4.83-38.27-1.1-13.91-7.85-23.82-20.08-29.44-13.3-6.11-27.32-5.86-38.47.69-15.7,9.22-24.89,29.61-27.32,60.6-.98,12.5-1.67,23.62-2.27,33.42-1.92,31.16-3.09,49.96-10.18,58.64-2.58,3.15-4.95,3.83-5.84,3.5-1.37-.49-3.52-3.9-3.49-10.94.03-6.89.31-15.91.61-25.46.82-26.25,1.76-56-1.33-70.48-5.67-26.63-21.35-41.96-40.91-40-21.58,2.16-43.83,23.49-41.66,65.21,3.44,66.37-.11,109.03-10.57,126.8-14.71,24.98-21.35,28.3-25.05,29.06-1.02-1.96-3.07-7.74-2.62-22,.4-12.96,1.64-33.91,2.94-56.09,1.39-23.66,2.83-48.13,3.34-64.4.2-6.56.83-14.97,1.49-23.88,3.64-48.93,4.75-81.96-12.28-94.67-12.44-9.29-26.6-12.15-38.85-7.86-9.48,3.33-22.12,12.46-28.5,37.06-6.7,25.83-7.26,52.6-7.72,74.11-.17,8.03-.33,15.61-.78,22.05-.96,13.53-1.54,23.8-2.06,32.87-.42,7.38-.78,13.76-1.27,20.62l-.02.26c-3.78,53.24-6.06,97.31,1.07,122.89-3.04-.66-5.82-.68-8.12-.41-10.68,1.24-20.56,9.25-29.38,23.81l-1.33,2.2c-7.71,12.75-17.3,28.63-25.52,29.45-8.24.83-10.95-17.3-11.74-25.13-1.98-19.77-1.47-29.47-1-33.48.77-1.26,2.46-3.61,3.86-5.56,2.09-2.91,4.69-6.53,7.61-10.96,7.01-10.63,23.08-38.95,30.26-59.33,7.33-20.8,30.85-92.8,25.49-146.26-2.67-26.66-11.28-45.91-25.6-57.21-11.16-8.81-25.24-12.34-40.73-10.25-27.22,3.69-60.62,40.19-68.89,100.56-6.64,48.44-10.4,124.5-12.89,174.82-.45,9.14-.86,17.33-1.22,24.21-.44,8.24-.72,16-.99,23.5-1.09,30.33-1.95,54.29-12.65,70.6-7.87,12.01-11.89,14.92-13.17,15.6-.38-.2-1.04-.61-2.01-1.41-.53-1.46-1.88-6.82-.79-22.19.87-12.35,2.97-26.75,4.83-39.47.95-6.5,1.84-12.64,2.5-17.99,1.11-9.03,3.44-39.93-13.19-58.32-7.07-7.82-16.38-11.83-26.94-11.59-11.72.26-28.14,6.17-39.85,32.85-7.79,17.76-12.38,42-13.65,72.05-.19,4.48-.45,9.15-.71,13.67-2.16,38.15-4.6,81.39,31.95,103.46,13.3,8.03,27.54,11.42,41.67,10,3.07-.31,6.14-.84,9.19-1.61,19.95-5,38.5-19.8,50.9-40.63,8.34-14.02,13.37-24.19,16.49-31.81,10.75,8.17,28.09,15.78,52.85,10.68,35.31-7.28,53.76-32.28,69.64-57.26l2.2-3.46c7.79-12.23,14.52-22.8,18.32-31.98,1.7-4.1,2.77-7.96,3.26-11.58,8.82,6.97,19.18,11.83,29.84,13.76,15.57,2.81,30.94-.72,44.46-10.21,28.36-19.91,44.43-37.74,53.71-59.61,1.99-4.69,3.58-9.18,4.85-13.28,10.56,6.88,25.38,12.13,40.7,9.87,7.69-1.14,14.95-3.79,21.72-7.94-2.14,28.89-7.94,57.93-18.77,94.07-.84.08-1.67.16-2.51.24-76.51,7.67-161.8,41.07-241.56,94.81-33.86,22.81-66.59,52.55-89.81,81.59-28.76,35.97-40.47,67.96-33.86,92.52,7.43,27.56,35.19,43.13,82.54,46.29,14.13.94,28.62.65,43.33-.82,46.4-4.65,94.88-21.1,140.15-47.95,58.13-34.47,105.75-82.64,134.09-135.63,10.03-18.76,19.06-40.61,26.89-65.05,35.59-2.31,70.23-6.73,103.09-24.54,39.2-21.24,62.17-61.46,61.43-107.58-.46-28.67-7.35-48.02-19.41-54.48ZM636.21,609.8c-13.43,21.86-30.45,42.6-50.8,61.89-26.78,25.38-66.05,48.65-107.75,63.83-34.21,12.46-58.14,15.05-67.62,13.88,9.81-26.73,60.46-82.81,196.46-131.51,9.25-3.31,18.98-5.97,29.7-8.09Z"/>
      </g>
    </g>
    <g>
      <path class="cls-3" d="M304.84,258.75s0,0-.01-.01c-10.69-12.45-24.56-29.12-38.11-37.63l-5.38,6.56s10.67,11.29,15.67,20.92c-1.06.08-2.15.19-3.27.35-11.83,1.74-27.8,9.34-36.65,35.7-5.07,15.1-7.64,34.88-8.1,62.27-.18,10.7-1.09,21.14-1.98,31.22-1.1,12.61-2.14,24.48-1.51,35.04l-21.37-2.39c7.19,7.72,22.91,23.39,31.67,31.78,1.23,1.39,2.59,2.71,4.1,3.94.19.15.38.3.57.45.02.02.04.04.06.05.24.21.46.38.68.53,7.23,5.42,15.71,7.82,24.38,6.95,1.48-.15,2.97-.39,4.46-.73,17.46-4,30.22-19.52,35.83-31.6,7.94-17.08,10.8-53.11,12.66-101.94,1.18-31.08-3.05-50.24-13.68-61.47Z"/>
      <path class="cls-3" d="M894.93,439.25s-.04-.04-.07-.07c-5.88-5.59-26.53-27.97-33.89-33.99l-12.45-.6,14.71,18.91,8,13.46c-7.34,5.11-10.93,15.02-10.1,28.04,1.91,29.89-31.11,73.87-97.9,86.6,8.05-40.84,12.12-78.76,14.16-104.75l.09-1.17h0c.47-6.08.87-12.04,1.19-17.72.05-.9.07-1.8.06-2.68.22-2.2.44-4.73.56-7.38.82-9.45,1.65-19.51,2.16-29.17,1.25-23.51,5.92-53.83,14.3-92.71,3.14-14.59,5.68-27.55,4.83-38.27-.72-9.16-3.91-16.57-9.48-22.18-.05-.05-.08-.1-.13-.16-5.74-6.49-26.19-26.85-33.56-33.75l-11.01-1.71,8.29,17.07,5.11,6.92c-6.32.22-12.38,1.9-17.77,5.06-15.7,9.22-24.89,29.61-27.32,60.6-.98,12.5-1.67,23.62-2.27,33.42-1.92,31.16-3.09,49.96-10.18,58.64-2.58,3.15-4.95,3.83-5.84,3.5-1.37-.49-3.52-3.9-3.49-10.94.03-6.89.31-15.91.61-25.46.82-26.25,1.76-56-1.33-70.48-3.02-14.16-8.86-25.13-16.61-31.99,0,0,0,0,0,0-5.73-5.13-21.19-23.56-33.18-33.37l-12.05,1.09,17.26,18.03,3.87,6.24c-.06,0-.13,0-.19.01-21.58,2.16-43.83,23.49-41.66,65.21,3.44,66.37-.11,109.03-10.57,126.8-14.71,24.98-21.35,28.3-25.05,29.06-1.02-1.96-3.07-7.74-2.62-22,.4-12.96,1.64-33.91,2.94-56.09,1.39-23.66,2.83-48.13,3.34-64.4.2-6.56.83-14.97,1.49-23.88,3.35-45.01,4.54-76.55-8.54-91.21-.1-.12-.2-.24-.31-.37-6.2-6.93-24.25-25.22-32.87-33.08-4.17-3.8-13.36-2.69-13.36-2.69l14.01,17.8,3.1,5.12c-4.51-.18-8.94.43-13.15,1.9-9.48,3.33-22.12,12.46-28.5,37.06-6.7,25.83-7.26,52.6-7.72,74.11-.17,8.03-.33,15.61-.78,22.05-.96,13.53-1.54,23.8-2.06,32.87-.42,7.38-.78,13.76-1.27,20.62l-.02.26c-3.56,50.2-5.79,92.24-.06,118.32l-23.65-19.26,4.31,15.24,1.21,12.11c-6.48,3.89-12.59,10.53-18.26,19.89l-1.33,2.2c-7.71,12.75-17.3,28.63-25.52,29.45-8.24.83-10.95-17.3-11.74-25.13-1.98-19.77-1.47-29.47-1-33.48.77-1.26,2.46-3.61,3.86-5.56,2.09-2.91,4.69-6.53,7.61-10.96,7.01-10.63,23.08-38.95,30.26-59.33,7.33-20.8,30.85-92.8,25.49-146.26-2.43-24.27-9.8-42.37-21.89-53.95-.16-.16-.3-.32-.46-.47-5.94-5.64-27.7-29.62-37.07-36.64-7.95-5.95-16.67-4.3-16.67-4.3l7.56,8.5,18.36,17.18,1.96,2.47c-5.73-.99-11.8-1.08-18.1-.23-27.22,3.69-60.62,40.19-68.89,100.56-6.64,48.44-10.4,124.5-12.89,174.82-.45,9.14-.86,17.33-1.22,24.21-.44,8.24-.72,16-.99,23.5-1.09,30.33-1.95,54.29-12.65,70.6-7.87,12.01-11.89,14.92-13.17,15.6-.38-.2-1.04-.61-2.01-1.41-.53-1.46-1.88-6.82-.79-22.19.87-12.35,2.97-26.75,4.83-39.47.95-6.5,1.84-12.64,2.5-17.99,1.11-9.03,3.44-39.93-13.19-58.32-1.36-1.51-2.81-2.87-4.34-4.09,0,0,0,0,0,0-10.74-10.31-41.81-36.19-41.81-36.19l13.04,22.59,3.52,6.27c-11.45,1.09-26.34,7.98-37.18,32.69-7.79,17.76-12.38,42-13.65,72.05-.19,4.48-.45,9.15-.71,13.67-1.1,19.43-2.26,40.17,1.68,58.77l-8.93-3.29-11.67-1.2c12.63,16,30.45,33.26,40.65,41.6.06.05.11.08.17.13,2.97,2.69,6.3,5.19,10.05,7.45,13.3,8.03,27.54,11.42,41.67,10,3.07-.31,6.14-.84,9.19-1.61,19.95-5,38.5-19.8,50.9-40.63,8.34-14.02,13.37-24.19,16.49-31.81,10.75,8.17,28.09,15.78,52.85,10.68,35.31-7.28,53.76-32.28,69.64-57.26l2.2-3.46c7.79-12.23,14.52-22.8,18.32-31.98,1.7-4.1,2.77-7.96,3.26-11.58,8.82,6.97,19.18,11.83,29.84,13.76,15.57,2.81,30.94-.72,44.46-10.21,28.36-19.91,44.43-37.74,53.71-59.61,1.99-4.69,3.58-9.18,4.85-13.28,10.56,6.88,25.38,12.13,40.7,9.87,7.69-1.14,14.95-3.79,21.72-7.94-2.14,28.89-7.94,57.93-18.77,94.07-.84.08-1.67.16-2.51.24-76.51,7.67-161.8,41.07-241.56,94.81-33.86,22.81-66.59,52.55-89.81,81.59-25.45,31.83-37.54,60.54-35.4,83.74l-.21-.18-21.63-5.57c10.18,12.33,20.37,21.98,34.52,34.97,0,0,0,0,.01,0,13.53,14.9,37.42,23.56,71.4,25.83,14.13.94,28.62.65,43.33-.82,46.4-4.65,94.88-21.1,140.15-47.95,58.13-34.47,105.75-82.64,134.09-135.63,10.03-18.76,19.06-40.61,26.89-65.05,35.59-2.31,70.23-6.73,103.09-24.54,39.2-21.24,62.17-61.46,61.43-107.58-.4-24.82-5.62-42.65-14.84-51.18ZM603.49,692.7c-26.78,25.38-66.05,48.65-107.75,63.83-34.21,12.46-58.14,15.05-67.62,13.88,9.81-26.73,60.46-82.81,196.46-131.51,9.25-3.31,18.98-5.97,29.7-8.09-13.43,21.86-30.45,42.6-50.8,61.89Z"/>
      <g id="dark_outline_1-2" data-name="dark outline 1">
        <path class="cls-3" d="M232.58,421.28c1.48-.15,2.97-.39,4.46-.73,17.46-4,30.22-19.52,35.83-31.6,7.94-17.08,10.8-53.11,12.66-101.94,1.25-33-3.6-52.57-15.73-63.46-5.28-4.74-14.6-9.94-29.06-7.81-11.83,1.74-27.8,9.34-36.65,35.7-5.07,15.1-7.64,34.88-8.1,62.27-.18,10.7-1.09,21.14-1.98,31.22-2.54,28.96-4.73,53.97,12.89,68.38,7.51,6.14,16.49,8.9,25.69,7.98Z"/>
        <path class="cls-3" d="M857.36,402.75c-6.02-3.22-12.95-3-18.54.59-7.75,4.98-11.54,15.09-10.69,28.45,1.91,29.89-31.11,73.87-97.9,86.6,8.05-40.84,12.12-78.76,14.16-104.75l.09-1.17h0c.47-6.08.87-12.04,1.19-17.72.05-.9.07-1.8.06-2.68.22-2.2.44-4.73.56-7.38.82-9.45,1.65-19.51,2.16-29.17,1.25-23.51,5.92-53.83,14.3-92.71,3.14-14.59,5.68-27.55,4.83-38.27-1.1-13.91-7.85-23.82-20.08-29.44-13.3-6.11-27.32-5.86-38.47.69-15.7,9.22-24.89,29.61-27.32,60.6-.98,12.5-1.67,23.62-2.27,33.42-1.92,31.16-3.09,49.96-10.18,58.64-2.58,3.15-4.95,3.83-5.84,3.5-1.37-.49-3.52-3.9-3.49-10.94.03-6.89.31-15.91.61-25.46.82-26.25,1.76-56-1.33-70.48-5.67-26.63-21.35-41.96-40.91-40-21.58,2.16-43.83,23.49-41.66,65.21,3.44,66.37-.11,109.03-10.57,126.8-14.71,24.98-21.35,28.3-25.05,29.06-1.02-1.96-3.07-7.74-2.62-22,.4-12.96,1.64-33.91,2.94-56.09,1.39-23.66,2.83-48.13,3.34-64.4.2-6.56.83-14.97,1.49-23.88,3.64-48.93,4.75-81.96-12.28-94.67-12.44-9.29-26.6-12.15-38.85-7.86-9.48,3.33-22.12,12.46-28.5,37.06-6.7,25.83-7.26,52.6-7.72,74.11-.17,8.03-.33,15.61-.78,22.05-.96,13.53-1.54,23.8-2.06,32.87-.42,7.38-.78,13.76-1.27,20.62l-.02.26c-3.78,53.24-6.06,97.31,1.07,122.89-3.04-.66-5.82-.68-8.12-.41-10.68,1.24-20.56,9.25-29.38,23.81l-1.33,2.2c-7.71,12.75-17.3,28.63-25.52,29.45-8.24.83-10.95-17.3-11.74-25.13-1.98-19.77-1.47-29.47-1-33.48.77-1.26,2.46-3.61,3.86-5.56,2.09-2.91,4.69-6.53,7.61-10.96,7.01-10.63,23.08-38.95,30.26-59.33,7.33-20.8,30.85-92.8,25.49-146.26-2.67-26.66-11.28-45.91-25.6-57.21-11.16-8.81-25.24-12.34-40.73-10.25-27.22,3.69-60.62,40.19-68.89,100.56-6.64,48.44-10.4,124.5-12.89,174.82-.45,9.14-.86,17.33-1.22,24.21-.44,8.24-.72,16-.99,23.5-1.09,30.33-1.95,54.29-12.65,70.6-7.87,12.01-11.89,14.92-13.17,15.6-.38-.2-1.04-.61-2.01-1.41-.53-1.46-1.88-6.82-.79-22.19.87-12.35,2.97-26.75,4.83-39.47.95-6.5,1.84-12.64,2.5-17.99,1.11-9.03,3.44-39.93-13.19-58.32-7.07-7.82-16.38-11.83-26.94-11.59-11.72.26-28.14,6.17-39.85,32.85-7.79,17.76-12.38,42-13.65,72.05-.19,4.48-.45,9.15-.71,13.67-2.16,38.15-4.6,81.39,31.95,103.46,13.3,8.03,27.54,11.42,41.67,10,3.07-.31,6.14-.84,9.19-1.61,19.95-5,38.5-19.8,50.9-40.63,8.34-14.02,13.37-24.19,16.49-31.81,10.75,8.17,28.09,15.78,52.85,10.68,35.31-7.28,53.76-32.28,69.64-57.26l2.2-3.46c7.79-12.23,14.52-22.8,18.32-31.98,1.7-4.1,2.77-7.96,3.26-11.58,8.82,6.97,19.18,11.83,29.84,13.76,15.57,2.81,30.94-.72,44.46-10.21,28.36-19.91,44.43-37.74,53.71-59.61,1.99-4.69,3.58-9.18,4.85-13.28,10.56,6.88,25.38,12.13,40.7,9.87,7.69-1.14,14.95-3.79,21.72-7.94-2.14,28.89-7.94,57.93-18.77,94.07-.84.08-1.67.16-2.51.24-76.51,7.67-161.8,41.07-241.56,94.81-33.86,22.81-66.59,52.55-89.81,81.59-28.76,35.97-40.47,67.96-33.86,92.52,7.43,27.56,35.19,43.13,82.54,46.29,14.13.94,28.62.65,43.33-.82,46.4-4.65,94.88-21.1,140.15-47.95,58.13-34.47,105.75-82.64,134.09-135.63,10.03-18.76,19.06-40.61,26.89-65.05,35.59-2.31,70.23-6.73,103.09-24.54,39.2-21.24,62.17-61.46,61.43-107.58-.46-28.67-7.35-48.02-19.41-54.48ZM621.29,597.6c-13.43,21.86-30.45,42.6-50.8,61.89-26.78,25.38-66.05,48.65-107.75,63.83-34.21,12.46-58.14,15.05-67.62,13.88,9.81-26.73,60.46-82.81,196.46-131.51,9.25-3.31,18.98-5.97,29.7-8.09Z"/>
      </g>
    </g>
    <path class="cls-2" d="M460.48,484.37c-9.23-9.41-20.27-4.87-31.04,12.9-10.76,17.77-21.37,36.34-36.71,37.88-15.35,1.54-23.6-12.54-26.03-36.82-2.43-24.29-1.27-34.61-.75-37.97.53-3.36,5.86-9.23,13.31-20.53,7.45-11.3,22.51-38.49,28.85-56.48s29.92-89.63,24.81-140.61c-5.11-50.98-32.09-58.46-51.58-55.82-19.49,2.65-49.92,32.59-57.71,89.39-7.79,56.81-11.67,154.12-14.01,197.95-2.34,43.83-.17,76.8-15.75,100.57-15.58,23.77-24.45,25.95-35.46,16.2-11-9.75-.5-62.35,2.95-90.41,3.11-25.26-3.66-55.77-26.88-55.26-23.22.51-38.34,35.46-40.74,92.4-1.7,40.15-8.71,85.08,24.95,105.4,33.66,20.32,66.59,1.17,83.8-27.73,17.2-28.9,19.22-39.86,20.39-46.13,1.17-6.27.97-4.88,6.71,2.33,5.74,7.21,21.64,22.57,50.82,16.56,29.18-6.02,44.98-25.86,61.26-51.47,16.28-25.61,28.05-42.94,18.82-52.35ZM366.19,374.66c.08-12.88.49-39.9,2.4-69.47,2.26-34.91,4.71-52.13,10.73-59.48,6.02-7.36,12.84-4.02,13.95,19.89,1.75,37.67-12.14,87.85-19,107.31-6.85,19.46-8.16,14.64-8.08,1.76Z"/>
    <path class="cls-2" d="M209.04,313.92c-.67,39.67-10.96,75.3,6.12,89.27,17.08,13.97,37.95-2.71,45.87-19.75,7.92-17.04,10.13-62.21,11.45-96.93,1.32-34.72-4.09-61.64-29.85-57.86-25.75,3.78-32.83,39.62-33.59,85.27Z"/>
    <path class="cls-2" d="M841.17,430.97c2.69,42.2-44.89,94.93-127.54,102.98,10.59-47.39,15.49-92.54,17.75-121.32h0s0,0,0,0c.57-7.35.98-13.63,1.26-18.61.05-.84.05-1.64.01-2.39.27-2.57.5-5.15.61-7.77.8-9.24,1.65-19.42,2.15-29.01,1.6-30.23,8.36-65.95,14.57-94.77,6.21-28.82,8.65-45.47-7.93-53.1-16.59-7.63-42.92-5.83-47.32,50.44-4.4,56.26-2.84,84-15.37,99.31-12.52,15.31-32.61,9.37-32.49-15.77.12-25.14,3.4-75.18-.42-93.16-3.83-17.98-13.47-31.06-26.84-29.73-13.37,1.34-31.79,15.54-29.92,51.54,1.87,36,4.4,105.64-12.35,134.1-16.75,28.45-25.81,34.21-35.7,35.56-9.89,1.35-17.12-8.33-16.28-35.53.84-27.2,5.32-89.36,6.28-120.49.97-31.13,10.55-95.66-5.55-107.69-16.1-12.02-38.13-11.77-46.89,22.02-8.77,33.79-6.4,69.59-8.11,93.81-1.72,24.22-2.22,37.87-3.32,53.5-3.41,48.13-7.85,110.3,4.95,128.96s42.72,35.28,70.57,15.73,41.44-35.76,49.2-54.02c5.56-13.1,7.65-24.32,8.61-29.73s.61-4.78,6.55,2.92c5.93,7.7,23.07,18.15,40.5,15.58,17.43-2.57,27.97-14.88,31.98-19.79,4.01-4.91,5.25-3.68,5.27,4.12.01,4.42,0,8.48-.03,12.17-1.64,34.4-8.23,69.13-22.47,114.85-82.7,5.53-171.43,42.89-246.66,93.57-89.42,60.24-192.19,186.9-47.56,196.54,117.7,7.84,249.8-73.92,305.19-177.53,11.68-21.84,21.06-46.33,28.61-71.38,37.23-2.11,73.48-5.54,106.66-23.53,40.67-22.04,55.13-62.3,54.6-95.9-.83-52.54-24.27-53.33-22.55-26.47ZM579.48,668.97c-73.03,69.23-205.1,100.19-198.43,69.9,7.51-34.11,66.21-95.36,206.14-145.47,19.2-6.88,38.71-10.47,58.23-12.62-12.7,26.11-32.67,56.66-65.94,88.19Z"/>
  </g>
</svg>